%TF.GenerationSoftware,KiCad,Pcbnew,9.0.0*%
%TF.CreationDate,2025-04-10T22:34:47-07:00*%
%TF.ProjectId,HOPE_ESP32_Drone,484f5045-5f45-4535-9033-325f44726f6e,rev?*%
%TF.SameCoordinates,Original*%
%TF.FileFunction,Drillmap*%
%TF.FilePolarity,Positive*%
%FSLAX45Y45*%
G04 Gerber Fmt 4.5, Leading zero omitted, Abs format (unit mm)*
G04 Created by KiCad (PCBNEW 9.0.0) date 2025-04-10 22:34:47*
%MOMM*%
%LPD*%
G01*
G04 APERTURE LIST*
%ADD10C,0.100000*%
%ADD11C,0.050000*%
%ADD12C,0.049784*%
%ADD13C,0.200000*%
G04 APERTURE END LIST*
D10*
X9054870Y-11361660D02*
G75*
G02*
X8109990Y-11361660I-472440J0D01*
G01*
X8109990Y-11361660D02*
G75*
G02*
X9054870Y-11361660I472440J0D01*
G01*
D11*
X10497820Y-5831840D02*
X10497820Y-8745220D01*
D12*
X16637134Y-10718115D02*
G75*
G02*
X16085257Y-11269318I91546J-643535D01*
G01*
X16023679Y-3484880D02*
X14114780Y-5130800D01*
X9289961Y-11092180D02*
X11198860Y-9446260D01*
X16459200Y-10654119D02*
X14813280Y-8745220D01*
X8851900Y-10654120D02*
G75*
G02*
X8674762Y-10718242I-148620J133830D01*
G01*
X16021140Y-11092180D02*
G75*
G02*
X16085262Y-11269318I-133830J-148620D01*
G01*
X8674746Y-3858818D02*
G75*
G02*
X8851900Y-3922941I28524J-197972D01*
G01*
X16461740Y-3922940D02*
G75*
G02*
X16638878Y-3858818I148620J-133830D01*
G01*
D10*
X17201120Y-11361650D02*
G75*
G02*
X16256240Y-11361650I-472440J0D01*
G01*
X16256240Y-11361650D02*
G75*
G02*
X17201120Y-11361650I472440J0D01*
G01*
D12*
X16087675Y-3306946D02*
G75*
G02*
X16638878Y-3858823I643535J91546D01*
G01*
D11*
X11198860Y-9446260D02*
X14112240Y-9446260D01*
D12*
X8673966Y-3858945D02*
G75*
G02*
X9225843Y-3307742I-91546J643535D01*
G01*
D11*
X14813280Y-8745220D02*
X14815820Y-5831840D01*
D12*
X14112240Y-9446260D02*
X16021140Y-11092180D01*
D11*
X14114780Y-5130800D02*
X11198860Y-5130800D01*
D12*
X8851900Y-3922941D02*
X10497820Y-5831840D01*
D10*
X17203650Y-3215400D02*
G75*
G02*
X16258770Y-3215400I-472440J0D01*
G01*
X16258770Y-3215400D02*
G75*
G02*
X17203650Y-3215400I472440J0D01*
G01*
D12*
X10497820Y-8745220D02*
X8851900Y-10654120D01*
X14815820Y-5831840D02*
X16461740Y-3922940D01*
D10*
X9054860Y-3215410D02*
G75*
G02*
X8109980Y-3215410I-472440J0D01*
G01*
X8109980Y-3215410D02*
G75*
G02*
X9054860Y-3215410I472440J0D01*
G01*
D12*
X9289960Y-3484880D02*
G75*
G02*
X9225838Y-3307742I133830J148620D01*
G01*
X11198860Y-5130800D02*
X9289960Y-3484880D01*
X9225838Y-11269334D02*
G75*
G02*
X9289961Y-11092180I197972J28524D01*
G01*
X16087802Y-3307726D02*
G75*
G02*
X16023679Y-3484880I-197972J-28524D01*
G01*
X9225965Y-11270114D02*
G75*
G02*
X8674762Y-10718237I-643535J-91546D01*
G01*
X16636354Y-10718242D02*
G75*
G02*
X16459200Y-10654119I-28524J197972D01*
G01*
D13*
D10*
X11906060Y-8768900D02*
X11971060Y-8833900D01*
X11971060Y-8768900D02*
X11906060Y-8833900D01*
X12484060Y-8768900D02*
X12549060Y-8833900D01*
X12549060Y-8768900D02*
X12484060Y-8833900D01*
D13*
X8190694Y-12325647D02*
X8190694Y-12125647D01*
X8190694Y-12125647D02*
X8238313Y-12125647D01*
X8238313Y-12125647D02*
X8266884Y-12135171D01*
X8266884Y-12135171D02*
X8285932Y-12154218D01*
X8285932Y-12154218D02*
X8295456Y-12173266D01*
X8295456Y-12173266D02*
X8304979Y-12211361D01*
X8304979Y-12211361D02*
X8304979Y-12239932D01*
X8304979Y-12239932D02*
X8295456Y-12278028D01*
X8295456Y-12278028D02*
X8285932Y-12297075D01*
X8285932Y-12297075D02*
X8266884Y-12316123D01*
X8266884Y-12316123D02*
X8238313Y-12325647D01*
X8238313Y-12325647D02*
X8190694Y-12325647D01*
X8390694Y-12325647D02*
X8390694Y-12192313D01*
X8390694Y-12230409D02*
X8400218Y-12211361D01*
X8400218Y-12211361D02*
X8409741Y-12201837D01*
X8409741Y-12201837D02*
X8428789Y-12192313D01*
X8428789Y-12192313D02*
X8447837Y-12192313D01*
X8514503Y-12325647D02*
X8514503Y-12192313D01*
X8514503Y-12125647D02*
X8504980Y-12135171D01*
X8504980Y-12135171D02*
X8514503Y-12144694D01*
X8514503Y-12144694D02*
X8524027Y-12135171D01*
X8524027Y-12135171D02*
X8514503Y-12125647D01*
X8514503Y-12125647D02*
X8514503Y-12144694D01*
X8638313Y-12325647D02*
X8619265Y-12316123D01*
X8619265Y-12316123D02*
X8609741Y-12297075D01*
X8609741Y-12297075D02*
X8609741Y-12125647D01*
X8743075Y-12325647D02*
X8724027Y-12316123D01*
X8724027Y-12316123D02*
X8714503Y-12297075D01*
X8714503Y-12297075D02*
X8714503Y-12125647D01*
X8971646Y-12325647D02*
X8971646Y-12125647D01*
X8971646Y-12125647D02*
X9038313Y-12268504D01*
X9038313Y-12268504D02*
X9104980Y-12125647D01*
X9104980Y-12125647D02*
X9104980Y-12325647D01*
X9285932Y-12325647D02*
X9285932Y-12220885D01*
X9285932Y-12220885D02*
X9276408Y-12201837D01*
X9276408Y-12201837D02*
X9257361Y-12192313D01*
X9257361Y-12192313D02*
X9219265Y-12192313D01*
X9219265Y-12192313D02*
X9200218Y-12201837D01*
X9285932Y-12316123D02*
X9266884Y-12325647D01*
X9266884Y-12325647D02*
X9219265Y-12325647D01*
X9219265Y-12325647D02*
X9200218Y-12316123D01*
X9200218Y-12316123D02*
X9190694Y-12297075D01*
X9190694Y-12297075D02*
X9190694Y-12278028D01*
X9190694Y-12278028D02*
X9200218Y-12258980D01*
X9200218Y-12258980D02*
X9219265Y-12249456D01*
X9219265Y-12249456D02*
X9266884Y-12249456D01*
X9266884Y-12249456D02*
X9285932Y-12239932D01*
X9381170Y-12192313D02*
X9381170Y-12392313D01*
X9381170Y-12201837D02*
X9400218Y-12192313D01*
X9400218Y-12192313D02*
X9438313Y-12192313D01*
X9438313Y-12192313D02*
X9457361Y-12201837D01*
X9457361Y-12201837D02*
X9466884Y-12211361D01*
X9466884Y-12211361D02*
X9476408Y-12230409D01*
X9476408Y-12230409D02*
X9476408Y-12287551D01*
X9476408Y-12287551D02*
X9466884Y-12306599D01*
X9466884Y-12306599D02*
X9457361Y-12316123D01*
X9457361Y-12316123D02*
X9438313Y-12325647D01*
X9438313Y-12325647D02*
X9400218Y-12325647D01*
X9400218Y-12325647D02*
X9381170Y-12316123D01*
X9562122Y-12306599D02*
X9571646Y-12316123D01*
X9571646Y-12316123D02*
X9562122Y-12325647D01*
X9562122Y-12325647D02*
X9552599Y-12316123D01*
X9552599Y-12316123D02*
X9562122Y-12306599D01*
X9562122Y-12306599D02*
X9562122Y-12325647D01*
X9562122Y-12201837D02*
X9571646Y-12211361D01*
X9571646Y-12211361D02*
X9562122Y-12220885D01*
X9562122Y-12220885D02*
X9552599Y-12211361D01*
X9552599Y-12211361D02*
X9562122Y-12201837D01*
X9562122Y-12201837D02*
X9562122Y-12220885D01*
D10*
X7864917Y-12621663D02*
X7929917Y-12686663D01*
X7929917Y-12621663D02*
X7864917Y-12686663D01*
D13*
X8228789Y-12545647D02*
X8247837Y-12545647D01*
X8247837Y-12545647D02*
X8266884Y-12555171D01*
X8266884Y-12555171D02*
X8276408Y-12564694D01*
X8276408Y-12564694D02*
X8285932Y-12583742D01*
X8285932Y-12583742D02*
X8295456Y-12621837D01*
X8295456Y-12621837D02*
X8295456Y-12669456D01*
X8295456Y-12669456D02*
X8285932Y-12707551D01*
X8285932Y-12707551D02*
X8276408Y-12726599D01*
X8276408Y-12726599D02*
X8266884Y-12736123D01*
X8266884Y-12736123D02*
X8247837Y-12745647D01*
X8247837Y-12745647D02*
X8228789Y-12745647D01*
X8228789Y-12745647D02*
X8209741Y-12736123D01*
X8209741Y-12736123D02*
X8200218Y-12726599D01*
X8200218Y-12726599D02*
X8190694Y-12707551D01*
X8190694Y-12707551D02*
X8181170Y-12669456D01*
X8181170Y-12669456D02*
X8181170Y-12621837D01*
X8181170Y-12621837D02*
X8190694Y-12583742D01*
X8190694Y-12583742D02*
X8200218Y-12564694D01*
X8200218Y-12564694D02*
X8209741Y-12555171D01*
X8209741Y-12555171D02*
X8228789Y-12545647D01*
X8381170Y-12726599D02*
X8390694Y-12736123D01*
X8390694Y-12736123D02*
X8381170Y-12745647D01*
X8381170Y-12745647D02*
X8371646Y-12736123D01*
X8371646Y-12736123D02*
X8381170Y-12726599D01*
X8381170Y-12726599D02*
X8381170Y-12745647D01*
X8562122Y-12545647D02*
X8524027Y-12545647D01*
X8524027Y-12545647D02*
X8504980Y-12555171D01*
X8504980Y-12555171D02*
X8495456Y-12564694D01*
X8495456Y-12564694D02*
X8476408Y-12593266D01*
X8476408Y-12593266D02*
X8466884Y-12631361D01*
X8466884Y-12631361D02*
X8466884Y-12707551D01*
X8466884Y-12707551D02*
X8476408Y-12726599D01*
X8476408Y-12726599D02*
X8485932Y-12736123D01*
X8485932Y-12736123D02*
X8504980Y-12745647D01*
X8504980Y-12745647D02*
X8543075Y-12745647D01*
X8543075Y-12745647D02*
X8562122Y-12736123D01*
X8562122Y-12736123D02*
X8571646Y-12726599D01*
X8571646Y-12726599D02*
X8581170Y-12707551D01*
X8581170Y-12707551D02*
X8581170Y-12659932D01*
X8581170Y-12659932D02*
X8571646Y-12640885D01*
X8571646Y-12640885D02*
X8562122Y-12631361D01*
X8562122Y-12631361D02*
X8543075Y-12621837D01*
X8543075Y-12621837D02*
X8504980Y-12621837D01*
X8504980Y-12621837D02*
X8485932Y-12631361D01*
X8485932Y-12631361D02*
X8476408Y-12640885D01*
X8476408Y-12640885D02*
X8466884Y-12659932D01*
X8762122Y-12545647D02*
X8666884Y-12545647D01*
X8666884Y-12545647D02*
X8657361Y-12640885D01*
X8657361Y-12640885D02*
X8666884Y-12631361D01*
X8666884Y-12631361D02*
X8685932Y-12621837D01*
X8685932Y-12621837D02*
X8733551Y-12621837D01*
X8733551Y-12621837D02*
X8752599Y-12631361D01*
X8752599Y-12631361D02*
X8762122Y-12640885D01*
X8762122Y-12640885D02*
X8771646Y-12659932D01*
X8771646Y-12659932D02*
X8771646Y-12707551D01*
X8771646Y-12707551D02*
X8762122Y-12726599D01*
X8762122Y-12726599D02*
X8752599Y-12736123D01*
X8752599Y-12736123D02*
X8733551Y-12745647D01*
X8733551Y-12745647D02*
X8685932Y-12745647D01*
X8685932Y-12745647D02*
X8666884Y-12736123D01*
X8666884Y-12736123D02*
X8657361Y-12726599D01*
X8895456Y-12545647D02*
X8914503Y-12545647D01*
X8914503Y-12545647D02*
X8933551Y-12555171D01*
X8933551Y-12555171D02*
X8943075Y-12564694D01*
X8943075Y-12564694D02*
X8952599Y-12583742D01*
X8952599Y-12583742D02*
X8962122Y-12621837D01*
X8962122Y-12621837D02*
X8962122Y-12669456D01*
X8962122Y-12669456D02*
X8952599Y-12707551D01*
X8952599Y-12707551D02*
X8943075Y-12726599D01*
X8943075Y-12726599D02*
X8933551Y-12736123D01*
X8933551Y-12736123D02*
X8914503Y-12745647D01*
X8914503Y-12745647D02*
X8895456Y-12745647D01*
X8895456Y-12745647D02*
X8876408Y-12736123D01*
X8876408Y-12736123D02*
X8866884Y-12726599D01*
X8866884Y-12726599D02*
X8857361Y-12707551D01*
X8857361Y-12707551D02*
X8847837Y-12669456D01*
X8847837Y-12669456D02*
X8847837Y-12621837D01*
X8847837Y-12621837D02*
X8857361Y-12583742D01*
X8857361Y-12583742D02*
X8866884Y-12564694D01*
X8866884Y-12564694D02*
X8876408Y-12555171D01*
X8876408Y-12555171D02*
X8895456Y-12545647D01*
X9047837Y-12745647D02*
X9047837Y-12612313D01*
X9047837Y-12631361D02*
X9057361Y-12621837D01*
X9057361Y-12621837D02*
X9076408Y-12612313D01*
X9076408Y-12612313D02*
X9104980Y-12612313D01*
X9104980Y-12612313D02*
X9124027Y-12621837D01*
X9124027Y-12621837D02*
X9133551Y-12640885D01*
X9133551Y-12640885D02*
X9133551Y-12745647D01*
X9133551Y-12640885D02*
X9143075Y-12621837D01*
X9143075Y-12621837D02*
X9162122Y-12612313D01*
X9162122Y-12612313D02*
X9190694Y-12612313D01*
X9190694Y-12612313D02*
X9209742Y-12621837D01*
X9209742Y-12621837D02*
X9219265Y-12640885D01*
X9219265Y-12640885D02*
X9219265Y-12745647D01*
X9314503Y-12745647D02*
X9314503Y-12612313D01*
X9314503Y-12631361D02*
X9324027Y-12621837D01*
X9324027Y-12621837D02*
X9343075Y-12612313D01*
X9343075Y-12612313D02*
X9371646Y-12612313D01*
X9371646Y-12612313D02*
X9390694Y-12621837D01*
X9390694Y-12621837D02*
X9400218Y-12640885D01*
X9400218Y-12640885D02*
X9400218Y-12745647D01*
X9400218Y-12640885D02*
X9409742Y-12621837D01*
X9409742Y-12621837D02*
X9428789Y-12612313D01*
X9428789Y-12612313D02*
X9457361Y-12612313D01*
X9457361Y-12612313D02*
X9476408Y-12621837D01*
X9476408Y-12621837D02*
X9485932Y-12640885D01*
X9485932Y-12640885D02*
X9485932Y-12745647D01*
X9876408Y-12536123D02*
X9704980Y-12793266D01*
X10133551Y-12545647D02*
X10152599Y-12545647D01*
X10152599Y-12545647D02*
X10171646Y-12555171D01*
X10171646Y-12555171D02*
X10181170Y-12564694D01*
X10181170Y-12564694D02*
X10190694Y-12583742D01*
X10190694Y-12583742D02*
X10200218Y-12621837D01*
X10200218Y-12621837D02*
X10200218Y-12669456D01*
X10200218Y-12669456D02*
X10190694Y-12707551D01*
X10190694Y-12707551D02*
X10181170Y-12726599D01*
X10181170Y-12726599D02*
X10171646Y-12736123D01*
X10171646Y-12736123D02*
X10152599Y-12745647D01*
X10152599Y-12745647D02*
X10133551Y-12745647D01*
X10133551Y-12745647D02*
X10114504Y-12736123D01*
X10114504Y-12736123D02*
X10104980Y-12726599D01*
X10104980Y-12726599D02*
X10095456Y-12707551D01*
X10095456Y-12707551D02*
X10085932Y-12669456D01*
X10085932Y-12669456D02*
X10085932Y-12621837D01*
X10085932Y-12621837D02*
X10095456Y-12583742D01*
X10095456Y-12583742D02*
X10104980Y-12564694D01*
X10104980Y-12564694D02*
X10114504Y-12555171D01*
X10114504Y-12555171D02*
X10133551Y-12545647D01*
X10285932Y-12726599D02*
X10295456Y-12736123D01*
X10295456Y-12736123D02*
X10285932Y-12745647D01*
X10285932Y-12745647D02*
X10276408Y-12736123D01*
X10276408Y-12736123D02*
X10285932Y-12726599D01*
X10285932Y-12726599D02*
X10285932Y-12745647D01*
X10419265Y-12545647D02*
X10438313Y-12545647D01*
X10438313Y-12545647D02*
X10457361Y-12555171D01*
X10457361Y-12555171D02*
X10466885Y-12564694D01*
X10466885Y-12564694D02*
X10476408Y-12583742D01*
X10476408Y-12583742D02*
X10485932Y-12621837D01*
X10485932Y-12621837D02*
X10485932Y-12669456D01*
X10485932Y-12669456D02*
X10476408Y-12707551D01*
X10476408Y-12707551D02*
X10466885Y-12726599D01*
X10466885Y-12726599D02*
X10457361Y-12736123D01*
X10457361Y-12736123D02*
X10438313Y-12745647D01*
X10438313Y-12745647D02*
X10419265Y-12745647D01*
X10419265Y-12745647D02*
X10400218Y-12736123D01*
X10400218Y-12736123D02*
X10390694Y-12726599D01*
X10390694Y-12726599D02*
X10381170Y-12707551D01*
X10381170Y-12707551D02*
X10371646Y-12669456D01*
X10371646Y-12669456D02*
X10371646Y-12621837D01*
X10371646Y-12621837D02*
X10381170Y-12583742D01*
X10381170Y-12583742D02*
X10390694Y-12564694D01*
X10390694Y-12564694D02*
X10400218Y-12555171D01*
X10400218Y-12555171D02*
X10419265Y-12545647D01*
X10562123Y-12564694D02*
X10571646Y-12555171D01*
X10571646Y-12555171D02*
X10590694Y-12545647D01*
X10590694Y-12545647D02*
X10638313Y-12545647D01*
X10638313Y-12545647D02*
X10657361Y-12555171D01*
X10657361Y-12555171D02*
X10666885Y-12564694D01*
X10666885Y-12564694D02*
X10676408Y-12583742D01*
X10676408Y-12583742D02*
X10676408Y-12602790D01*
X10676408Y-12602790D02*
X10666885Y-12631361D01*
X10666885Y-12631361D02*
X10552599Y-12745647D01*
X10552599Y-12745647D02*
X10676408Y-12745647D01*
X10857361Y-12545647D02*
X10762123Y-12545647D01*
X10762123Y-12545647D02*
X10752599Y-12640885D01*
X10752599Y-12640885D02*
X10762123Y-12631361D01*
X10762123Y-12631361D02*
X10781170Y-12621837D01*
X10781170Y-12621837D02*
X10828789Y-12621837D01*
X10828789Y-12621837D02*
X10847837Y-12631361D01*
X10847837Y-12631361D02*
X10857361Y-12640885D01*
X10857361Y-12640885D02*
X10866885Y-12659932D01*
X10866885Y-12659932D02*
X10866885Y-12707551D01*
X10866885Y-12707551D02*
X10857361Y-12726599D01*
X10857361Y-12726599D02*
X10847837Y-12736123D01*
X10847837Y-12736123D02*
X10828789Y-12745647D01*
X10828789Y-12745647D02*
X10781170Y-12745647D01*
X10781170Y-12745647D02*
X10762123Y-12736123D01*
X10762123Y-12736123D02*
X10752599Y-12726599D01*
X11038313Y-12545647D02*
X11000218Y-12545647D01*
X11000218Y-12545647D02*
X10981170Y-12555171D01*
X10981170Y-12555171D02*
X10971646Y-12564694D01*
X10971646Y-12564694D02*
X10952599Y-12593266D01*
X10952599Y-12593266D02*
X10943075Y-12631361D01*
X10943075Y-12631361D02*
X10943075Y-12707551D01*
X10943075Y-12707551D02*
X10952599Y-12726599D01*
X10952599Y-12726599D02*
X10962123Y-12736123D01*
X10962123Y-12736123D02*
X10981170Y-12745647D01*
X10981170Y-12745647D02*
X11019266Y-12745647D01*
X11019266Y-12745647D02*
X11038313Y-12736123D01*
X11038313Y-12736123D02*
X11047837Y-12726599D01*
X11047837Y-12726599D02*
X11057361Y-12707551D01*
X11057361Y-12707551D02*
X11057361Y-12659932D01*
X11057361Y-12659932D02*
X11047837Y-12640885D01*
X11047837Y-12640885D02*
X11038313Y-12631361D01*
X11038313Y-12631361D02*
X11019266Y-12621837D01*
X11019266Y-12621837D02*
X10981170Y-12621837D01*
X10981170Y-12621837D02*
X10962123Y-12631361D01*
X10962123Y-12631361D02*
X10952599Y-12640885D01*
X10952599Y-12640885D02*
X10943075Y-12659932D01*
X11133551Y-12545647D02*
X11133551Y-12583742D01*
X11209742Y-12545647D02*
X11209742Y-12583742D01*
X11504980Y-12821837D02*
X11495456Y-12812313D01*
X11495456Y-12812313D02*
X11476408Y-12783742D01*
X11476408Y-12783742D02*
X11466885Y-12764694D01*
X11466885Y-12764694D02*
X11457361Y-12736123D01*
X11457361Y-12736123D02*
X11447837Y-12688504D01*
X11447837Y-12688504D02*
X11447837Y-12650409D01*
X11447837Y-12650409D02*
X11457361Y-12602790D01*
X11457361Y-12602790D02*
X11466885Y-12574218D01*
X11466885Y-12574218D02*
X11476408Y-12555171D01*
X11476408Y-12555171D02*
X11495456Y-12526599D01*
X11495456Y-12526599D02*
X11504980Y-12517075D01*
X11571646Y-12564694D02*
X11581170Y-12555171D01*
X11581170Y-12555171D02*
X11600218Y-12545647D01*
X11600218Y-12545647D02*
X11647837Y-12545647D01*
X11647837Y-12545647D02*
X11666885Y-12555171D01*
X11666885Y-12555171D02*
X11676408Y-12564694D01*
X11676408Y-12564694D02*
X11685932Y-12583742D01*
X11685932Y-12583742D02*
X11685932Y-12602790D01*
X11685932Y-12602790D02*
X11676408Y-12631361D01*
X11676408Y-12631361D02*
X11562123Y-12745647D01*
X11562123Y-12745647D02*
X11685932Y-12745647D01*
X11924027Y-12745647D02*
X11924027Y-12545647D01*
X12009742Y-12745647D02*
X12009742Y-12640885D01*
X12009742Y-12640885D02*
X12000218Y-12621837D01*
X12000218Y-12621837D02*
X11981170Y-12612313D01*
X11981170Y-12612313D02*
X11952599Y-12612313D01*
X11952599Y-12612313D02*
X11933551Y-12621837D01*
X11933551Y-12621837D02*
X11924027Y-12631361D01*
X12133551Y-12745647D02*
X12114504Y-12736123D01*
X12114504Y-12736123D02*
X12104980Y-12726599D01*
X12104980Y-12726599D02*
X12095456Y-12707551D01*
X12095456Y-12707551D02*
X12095456Y-12650409D01*
X12095456Y-12650409D02*
X12104980Y-12631361D01*
X12104980Y-12631361D02*
X12114504Y-12621837D01*
X12114504Y-12621837D02*
X12133551Y-12612313D01*
X12133551Y-12612313D02*
X12162123Y-12612313D01*
X12162123Y-12612313D02*
X12181170Y-12621837D01*
X12181170Y-12621837D02*
X12190694Y-12631361D01*
X12190694Y-12631361D02*
X12200218Y-12650409D01*
X12200218Y-12650409D02*
X12200218Y-12707551D01*
X12200218Y-12707551D02*
X12190694Y-12726599D01*
X12190694Y-12726599D02*
X12181170Y-12736123D01*
X12181170Y-12736123D02*
X12162123Y-12745647D01*
X12162123Y-12745647D02*
X12133551Y-12745647D01*
X12314504Y-12745647D02*
X12295456Y-12736123D01*
X12295456Y-12736123D02*
X12285932Y-12717075D01*
X12285932Y-12717075D02*
X12285932Y-12545647D01*
X12466885Y-12736123D02*
X12447837Y-12745647D01*
X12447837Y-12745647D02*
X12409742Y-12745647D01*
X12409742Y-12745647D02*
X12390694Y-12736123D01*
X12390694Y-12736123D02*
X12381170Y-12717075D01*
X12381170Y-12717075D02*
X12381170Y-12640885D01*
X12381170Y-12640885D02*
X12390694Y-12621837D01*
X12390694Y-12621837D02*
X12409742Y-12612313D01*
X12409742Y-12612313D02*
X12447837Y-12612313D01*
X12447837Y-12612313D02*
X12466885Y-12621837D01*
X12466885Y-12621837D02*
X12476408Y-12640885D01*
X12476408Y-12640885D02*
X12476408Y-12659932D01*
X12476408Y-12659932D02*
X12381170Y-12678980D01*
X12552599Y-12736123D02*
X12571647Y-12745647D01*
X12571647Y-12745647D02*
X12609742Y-12745647D01*
X12609742Y-12745647D02*
X12628789Y-12736123D01*
X12628789Y-12736123D02*
X12638313Y-12717075D01*
X12638313Y-12717075D02*
X12638313Y-12707551D01*
X12638313Y-12707551D02*
X12628789Y-12688504D01*
X12628789Y-12688504D02*
X12609742Y-12678980D01*
X12609742Y-12678980D02*
X12581170Y-12678980D01*
X12581170Y-12678980D02*
X12562123Y-12669456D01*
X12562123Y-12669456D02*
X12552599Y-12650409D01*
X12552599Y-12650409D02*
X12552599Y-12640885D01*
X12552599Y-12640885D02*
X12562123Y-12621837D01*
X12562123Y-12621837D02*
X12581170Y-12612313D01*
X12581170Y-12612313D02*
X12609742Y-12612313D01*
X12609742Y-12612313D02*
X12628789Y-12621837D01*
X12704980Y-12821837D02*
X12714504Y-12812313D01*
X12714504Y-12812313D02*
X12733551Y-12783742D01*
X12733551Y-12783742D02*
X12743075Y-12764694D01*
X12743075Y-12764694D02*
X12752599Y-12736123D01*
X12752599Y-12736123D02*
X12762123Y-12688504D01*
X12762123Y-12688504D02*
X12762123Y-12650409D01*
X12762123Y-12650409D02*
X12752599Y-12602790D01*
X12752599Y-12602790D02*
X12743075Y-12574218D01*
X12743075Y-12574218D02*
X12733551Y-12555171D01*
X12733551Y-12555171D02*
X12714504Y-12526599D01*
X12714504Y-12526599D02*
X12704980Y-12517075D01*
X13066885Y-12821837D02*
X13057361Y-12812313D01*
X13057361Y-12812313D02*
X13038313Y-12783742D01*
X13038313Y-12783742D02*
X13028789Y-12764694D01*
X13028789Y-12764694D02*
X13019266Y-12736123D01*
X13019266Y-12736123D02*
X13009742Y-12688504D01*
X13009742Y-12688504D02*
X13009742Y-12650409D01*
X13009742Y-12650409D02*
X13019266Y-12602790D01*
X13019266Y-12602790D02*
X13028789Y-12574218D01*
X13028789Y-12574218D02*
X13038313Y-12555171D01*
X13038313Y-12555171D02*
X13057361Y-12526599D01*
X13057361Y-12526599D02*
X13066885Y-12517075D01*
X13143075Y-12612313D02*
X13143075Y-12745647D01*
X13143075Y-12631361D02*
X13152599Y-12621837D01*
X13152599Y-12621837D02*
X13171647Y-12612313D01*
X13171647Y-12612313D02*
X13200218Y-12612313D01*
X13200218Y-12612313D02*
X13219266Y-12621837D01*
X13219266Y-12621837D02*
X13228789Y-12640885D01*
X13228789Y-12640885D02*
X13228789Y-12745647D01*
X13352599Y-12745647D02*
X13333551Y-12736123D01*
X13333551Y-12736123D02*
X13324028Y-12726599D01*
X13324028Y-12726599D02*
X13314504Y-12707551D01*
X13314504Y-12707551D02*
X13314504Y-12650409D01*
X13314504Y-12650409D02*
X13324028Y-12631361D01*
X13324028Y-12631361D02*
X13333551Y-12621837D01*
X13333551Y-12621837D02*
X13352599Y-12612313D01*
X13352599Y-12612313D02*
X13381170Y-12612313D01*
X13381170Y-12612313D02*
X13400218Y-12621837D01*
X13400218Y-12621837D02*
X13409742Y-12631361D01*
X13409742Y-12631361D02*
X13419266Y-12650409D01*
X13419266Y-12650409D02*
X13419266Y-12707551D01*
X13419266Y-12707551D02*
X13409742Y-12726599D01*
X13409742Y-12726599D02*
X13400218Y-12736123D01*
X13400218Y-12736123D02*
X13381170Y-12745647D01*
X13381170Y-12745647D02*
X13352599Y-12745647D01*
X13476409Y-12612313D02*
X13552599Y-12612313D01*
X13504980Y-12545647D02*
X13504980Y-12717075D01*
X13504980Y-12717075D02*
X13514504Y-12736123D01*
X13514504Y-12736123D02*
X13533551Y-12745647D01*
X13533551Y-12745647D02*
X13552599Y-12745647D01*
X13771647Y-12612313D02*
X13771647Y-12812313D01*
X13771647Y-12621837D02*
X13790694Y-12612313D01*
X13790694Y-12612313D02*
X13828790Y-12612313D01*
X13828790Y-12612313D02*
X13847837Y-12621837D01*
X13847837Y-12621837D02*
X13857361Y-12631361D01*
X13857361Y-12631361D02*
X13866885Y-12650409D01*
X13866885Y-12650409D02*
X13866885Y-12707551D01*
X13866885Y-12707551D02*
X13857361Y-12726599D01*
X13857361Y-12726599D02*
X13847837Y-12736123D01*
X13847837Y-12736123D02*
X13828790Y-12745647D01*
X13828790Y-12745647D02*
X13790694Y-12745647D01*
X13790694Y-12745647D02*
X13771647Y-12736123D01*
X13981170Y-12745647D02*
X13962123Y-12736123D01*
X13962123Y-12736123D02*
X13952599Y-12717075D01*
X13952599Y-12717075D02*
X13952599Y-12545647D01*
X14143075Y-12745647D02*
X14143075Y-12640885D01*
X14143075Y-12640885D02*
X14133551Y-12621837D01*
X14133551Y-12621837D02*
X14114504Y-12612313D01*
X14114504Y-12612313D02*
X14076409Y-12612313D01*
X14076409Y-12612313D02*
X14057361Y-12621837D01*
X14143075Y-12736123D02*
X14124028Y-12745647D01*
X14124028Y-12745647D02*
X14076409Y-12745647D01*
X14076409Y-12745647D02*
X14057361Y-12736123D01*
X14057361Y-12736123D02*
X14047837Y-12717075D01*
X14047837Y-12717075D02*
X14047837Y-12698028D01*
X14047837Y-12698028D02*
X14057361Y-12678980D01*
X14057361Y-12678980D02*
X14076409Y-12669456D01*
X14076409Y-12669456D02*
X14124028Y-12669456D01*
X14124028Y-12669456D02*
X14143075Y-12659932D01*
X14209742Y-12612313D02*
X14285932Y-12612313D01*
X14238313Y-12545647D02*
X14238313Y-12717075D01*
X14238313Y-12717075D02*
X14247837Y-12736123D01*
X14247837Y-12736123D02*
X14266885Y-12745647D01*
X14266885Y-12745647D02*
X14285932Y-12745647D01*
X14428790Y-12736123D02*
X14409742Y-12745647D01*
X14409742Y-12745647D02*
X14371647Y-12745647D01*
X14371647Y-12745647D02*
X14352599Y-12736123D01*
X14352599Y-12736123D02*
X14343075Y-12717075D01*
X14343075Y-12717075D02*
X14343075Y-12640885D01*
X14343075Y-12640885D02*
X14352599Y-12621837D01*
X14352599Y-12621837D02*
X14371647Y-12612313D01*
X14371647Y-12612313D02*
X14409742Y-12612313D01*
X14409742Y-12612313D02*
X14428790Y-12621837D01*
X14428790Y-12621837D02*
X14438313Y-12640885D01*
X14438313Y-12640885D02*
X14438313Y-12659932D01*
X14438313Y-12659932D02*
X14343075Y-12678980D01*
X14609742Y-12745647D02*
X14609742Y-12545647D01*
X14609742Y-12736123D02*
X14590694Y-12745647D01*
X14590694Y-12745647D02*
X14552599Y-12745647D01*
X14552599Y-12745647D02*
X14533551Y-12736123D01*
X14533551Y-12736123D02*
X14524028Y-12726599D01*
X14524028Y-12726599D02*
X14514504Y-12707551D01*
X14514504Y-12707551D02*
X14514504Y-12650409D01*
X14514504Y-12650409D02*
X14524028Y-12631361D01*
X14524028Y-12631361D02*
X14533551Y-12621837D01*
X14533551Y-12621837D02*
X14552599Y-12612313D01*
X14552599Y-12612313D02*
X14590694Y-12612313D01*
X14590694Y-12612313D02*
X14609742Y-12621837D01*
X14685932Y-12821837D02*
X14695456Y-12812313D01*
X14695456Y-12812313D02*
X14714504Y-12783742D01*
X14714504Y-12783742D02*
X14724028Y-12764694D01*
X14724028Y-12764694D02*
X14733551Y-12736123D01*
X14733551Y-12736123D02*
X14743075Y-12688504D01*
X14743075Y-12688504D02*
X14743075Y-12650409D01*
X14743075Y-12650409D02*
X14733551Y-12602790D01*
X14733551Y-12602790D02*
X14724028Y-12574218D01*
X14724028Y-12574218D02*
X14714504Y-12555171D01*
X14714504Y-12555171D02*
X14695456Y-12526599D01*
X14695456Y-12526599D02*
X14685932Y-12517075D01*
M02*
