M48
; DRILL file {KiCad 9.0.0} date 2025-04-10T22:34:47-0700
; FORMAT={-:-/ absolute / metric / decimal}
; #@! TF.CreationDate,2025-04-10T22:34:47-07:00
; #@! TF.GenerationSoftware,Kicad,Pcbnew,9.0.0
; #@! TF.FileFunction,Plated,1,2,PTH
FMAT,2
METRIC
; #@! TA.AperFunction,Plated,PTH,ViaDrill
T1C0.351
; #@! TA.AperFunction,Plated,PTH,ComponentDrill
T2C0.600
; #@! TA.AperFunction,Plated,PTH,ComponentDrill
T3C0.813
; #@! TA.AperFunction,Plated,PTH,ComponentDrill
T4C1.000
%
G90
G05
T1
X107.518Y-65.151
X107.728Y-79.826
X108.255Y-65.862
X108.693Y-79.8
X110.058Y-78.613
X111.354Y-65.507
X113.919Y-53.416
X115.11Y-58.214
X115.113Y-56.413
X115.113Y-57.302
X115.339Y-88.618
X115.341Y-86.817
X115.341Y-87.706
X116.154Y-82.321
X117.424Y-78.334
X118.491Y-79.35
X118.923Y-72.771
X119.507Y-82.55
X119.876Y-85.776
X120.752Y-76.505
X120.752Y-77.318
X121.006Y-56.871
X121.056Y-88.341
X121.31Y-72.72
X121.996Y-78.867
X122.022Y-75.413
X123.139Y-74.397
X123.139Y-83.896
X123.241Y-79.705
X123.419Y-75.641
X123.546Y-72.288
X123.952Y-59.436
X123.952Y-60.579
X123.952Y-61.722
X124.155Y-81.915
X124.257Y-77.079
X124.46Y-73.812
X124.739Y-85.827
X125.095Y-59.436
X125.095Y-60.579
X125.095Y-61.722
X126.098Y-74.003
X126.238Y-59.436
X126.238Y-60.579
X126.238Y-61.722
X127.102Y-84.277
X127.152Y-78.994
X127.203Y-72.034
X128.295Y-78.359
X128.575Y-82.245
X129.464Y-82.245
X129.769Y-72.009
X130.124Y-76.403
X130.124Y-78.283
X130.983Y-75.408
X131.216Y-72.009
X131.724Y-82.525
X131.978Y-68.885
X132.258Y-74.143
X133.108Y-76.073
X133.807Y-68.809
X134.264Y-80.035
X135.077Y-80.035
X136.144Y-87.503
X136.201Y-73.412
X137.211Y-75.946
X137.312Y-74.625
X137.338Y-87.473
X137.795Y-53.061
X138.432Y-87.475
X138.504Y-58.011
X138.506Y-56.21
X138.506Y-57.099
X139.751Y-66.192
X139.776Y-77.267
X141.002Y-79.242
X141.122Y-74.092
X141.91Y-66.675
X141.967Y-79.216
X142.519Y-71.196
X144.45Y-65.964
X145.263Y-79.146
X145.288Y-74.092
X145.415Y-65.938
X146.558Y-71.222
X146.558Y-77.292
T3
X111.72Y-74.311
X111.72Y-76.311
T4
X131.572Y-91.262
X135.941Y-91.389
X138.049Y-81.432
T2
G00X117.956Y-86.964
M15
G01X117.956Y-88.064
M16
G05
G00X117.956Y-91.294
M15
G01X117.956Y-92.094
M16
G05
G00X126.596Y-86.964
M15
G01X126.596Y-88.064
M16
G05
G00X126.596Y-91.294
M15
G01X126.596Y-92.094
M16
G05
M30
