G04 #@! TF.GenerationSoftware,KiCad,Pcbnew,9.0.0*
G04 #@! TF.CreationDate,2025-04-10T22:34:47-07:00*
G04 #@! TF.ProjectId,HOPE_ESP32_Drone,484f5045-5f45-4535-9033-325f44726f6e,rev?*
G04 #@! TF.SameCoordinates,Original*
G04 #@! TF.FileFunction,Copper,L2,Bot*
G04 #@! TF.FilePolarity,Positive*
%FSLAX46Y46*%
G04 Gerber Fmt 4.6, Leading zero omitted, Abs format (unit mm)*
G04 Created by KiCad (PCBNEW 9.0.0) date 2025-04-10 22:34:47*
%MOMM*%
%LPD*%
G01*
G04 APERTURE LIST*
G04 Aperture macros list*
%AMRoundRect*
0 Rectangle with rounded corners*
0 $1 Rounding radius*
0 $2 $3 $4 $5 $6 $7 $8 $9 X,Y pos of 4 corners*
0 Add a 4 corners polygon primitive as box body*
4,1,4,$2,$3,$4,$5,$6,$7,$8,$9,$2,$3,0*
0 Add four circle primitives for the rounded corners*
1,1,$1+$1,$2,$3*
1,1,$1+$1,$4,$5*
1,1,$1+$1,$6,$7*
1,1,$1+$1,$8,$9*
0 Add four rect primitives between the rounded corners*
20,1,$1+$1,$2,$3,$4,$5,0*
20,1,$1+$1,$4,$5,$6,$7,0*
20,1,$1+$1,$6,$7,$8,$9,0*
20,1,$1+$1,$8,$9,$2,$3,0*%
G04 Aperture macros list end*
G04 #@! TA.AperFunction,ComponentPad*
%ADD10C,1.320800*%
G04 #@! TD*
G04 #@! TA.AperFunction,ComponentPad*
%ADD11C,2.000000*%
G04 #@! TD*
G04 #@! TA.AperFunction,ComponentPad*
%ADD12O,1.000000X2.100000*%
G04 #@! TD*
G04 #@! TA.AperFunction,ComponentPad*
%ADD13O,1.000000X1.800000*%
G04 #@! TD*
G04 #@! TA.AperFunction,SMDPad,CuDef*
%ADD14RoundRect,0.100000X-0.130000X-0.100000X0.130000X-0.100000X0.130000X0.100000X-0.130000X0.100000X0*%
G04 #@! TD*
G04 #@! TA.AperFunction,ViaPad*
%ADD15C,0.711200*%
G04 #@! TD*
G04 #@! TA.AperFunction,ViaPad*
%ADD16C,0.609600*%
G04 #@! TD*
G04 #@! TA.AperFunction,Conductor*
%ADD17C,0.203200*%
G04 #@! TD*
G04 #@! TA.AperFunction,Conductor*
%ADD18C,1.524000*%
G04 #@! TD*
G04 #@! TA.AperFunction,Conductor*
%ADD19C,1.143000*%
G04 #@! TD*
G04 #@! TA.AperFunction,Conductor*
%ADD20C,0.508000*%
G04 #@! TD*
G04 #@! TA.AperFunction,Conductor*
%ADD21C,0.965200*%
G04 #@! TD*
G04 #@! TA.AperFunction,Conductor*
%ADD22C,0.457200*%
G04 #@! TD*
G04 #@! TA.AperFunction,Conductor*
%ADD23C,0.254000*%
G04 #@! TD*
G04 APERTURE END LIST*
D10*
G04 #@! TO.P,VBAT,1,1*
G04 #@! TO.N,GND*
X111720000Y-74311000D03*
G04 #@! TO.P,VBAT,2,2*
G04 #@! TO.N,+BATT*
X111720000Y-76311001D03*
G04 #@! TD*
D11*
G04 #@! TO.P,3.3V,1,1*
G04 #@! TO.N,+3.3V*
X135940800Y-91389200D03*
G04 #@! TD*
G04 #@! TO.P,TP3,1,1*
G04 #@! TO.N,GND*
X138049000Y-81432400D03*
G04 #@! TD*
D12*
G04 #@! TO.P,J7,SH1,SHELL_GND*
G04 #@! TO.N,GND*
X117955600Y-87514000D03*
G04 #@! TO.P,J7,SH2,SHELL_GND*
X126595600Y-87514000D03*
D13*
G04 #@! TO.P,J7,SH3,SHELL_GND*
X117955600Y-91694000D03*
G04 #@! TO.P,J7,SH4,SHELL_GND*
X126595600Y-91694000D03*
G04 #@! TD*
D11*
G04 #@! TO.P,VBUS,1,1*
G04 #@! TO.N,VBUS*
X131572000Y-91262200D03*
G04 #@! TD*
D14*
G04 #@! TO.P,R26,1*
G04 #@! TO.N,Net-(J7-CC1)*
X121940400Y-88341200D03*
G04 #@! TO.P,R26,2*
G04 #@! TO.N,GND*
X122580400Y-88341200D03*
G04 #@! TD*
D15*
G04 #@! TO.N,GND*
X107727750Y-79825850D03*
X146558000Y-71221600D03*
X108254800Y-65862200D03*
X146558000Y-77292200D03*
X130124200Y-76403200D03*
X131724400Y-82524600D03*
X141966950Y-79216250D03*
X116154200Y-82321400D03*
X108692950Y-79800450D03*
X142519400Y-71196200D03*
X118922800Y-72771000D03*
X113919000Y-53416200D03*
X145415000Y-65938400D03*
X110058200Y-78613000D03*
X144449800Y-65963800D03*
X139776200Y-77266800D03*
D16*
X120751600Y-76504800D03*
D15*
X137795000Y-53060600D03*
D16*
X120751600Y-77317600D03*
D15*
X129463800Y-82245200D03*
X141001750Y-79241650D03*
X126238000Y-59436000D03*
X121310400Y-72720200D03*
X134264400Y-80035400D03*
X130983200Y-75408000D03*
X122021600Y-75412600D03*
X123139200Y-83896200D03*
X123952000Y-60579000D03*
X136200800Y-73412000D03*
X127101600Y-84277200D03*
X145262600Y-79146400D03*
X126238000Y-61722000D03*
X135077200Y-80035400D03*
X123952000Y-59436000D03*
X132257800Y-74142600D03*
X118491000Y-79349600D03*
X123952000Y-61722000D03*
X141909800Y-66675000D03*
X125095000Y-60579000D03*
X125095000Y-61722000D03*
X128574800Y-82245200D03*
X123418600Y-75641200D03*
X126238000Y-60579000D03*
X111353600Y-65506600D03*
X123240800Y-79705200D03*
X107518200Y-65151000D03*
X125095000Y-59436000D03*
X124155200Y-81915000D03*
G04 #@! TO.N,/ESP32-S3-WROOM/EN*
X139750800Y-66192400D03*
X121005600Y-56870600D03*
G04 #@! TO.N,+BATT*
X115341400Y-86817200D03*
X115110466Y-58214466D03*
X124256800Y-77078800D03*
X137337800Y-87472932D03*
X138506200Y-56210200D03*
X115341400Y-87706200D03*
X115112800Y-56413400D03*
X115339066Y-88618266D03*
X136144000Y-87503000D03*
X115112800Y-57302400D03*
X138506200Y-57099200D03*
X138432334Y-87475266D03*
X138503866Y-58011266D03*
G04 #@! TO.N,VBUS*
X117424200Y-78333600D03*
X119507000Y-82550000D03*
X119875600Y-85775800D03*
X124739400Y-85826600D03*
G04 #@! TO.N,/MOSI*
X124460000Y-73812400D03*
X130124200Y-78282800D03*
G04 #@! TO.N,/IMU_INT*
X128295400Y-78359000D03*
X129768600Y-72009000D03*
G04 #@! TO.N,/SCK*
X133108001Y-76073000D03*
X131216400Y-72009000D03*
G04 #@! TO.N,/IMU_CS*
X123545600Y-72288400D03*
X126098300Y-74002900D03*
G04 #@! TO.N,/MISO*
X127203200Y-72034400D03*
X127152400Y-78994000D03*
G04 #@! TO.N,/STAT2*
X123139200Y-74396600D03*
X121996200Y-78867000D03*
G04 #@! TO.N,/ESP32-S3-WROOM/Boot*
X141122400Y-74091800D03*
X145288000Y-74091800D03*
G04 #@! TO.N,/BMP_CS*
X133807200Y-68808600D03*
X137210800Y-75946000D03*
G04 #@! TO.N,/BMP_INT*
X131978400Y-68884800D03*
X137312400Y-74625200D03*
G04 #@! TO.N,Net-(J7-CC1)*
X121056400Y-88341200D03*
G04 #@! TD*
D17*
G04 #@! TO.N,/ESP32-S3-WROOM/EN*
X139471400Y-66065400D02*
X130276600Y-56870600D01*
X139750800Y-66192400D02*
X139623800Y-66065400D01*
X139623800Y-66065400D02*
X139471400Y-66065400D01*
X130276600Y-56870600D02*
X121005600Y-56870600D01*
D18*
G04 #@! TO.N,+BATT*
X115341400Y-86817200D02*
X115341400Y-88620600D01*
X111720000Y-77303000D02*
X114554000Y-80137000D01*
X115112800Y-58216800D02*
X115112800Y-56413400D01*
X130962400Y-87477600D02*
X128600200Y-89839800D01*
X114554000Y-80137000D02*
X114554000Y-86029800D01*
D19*
X115112800Y-56413400D02*
X115112800Y-56083200D01*
D18*
X109296200Y-75082400D02*
X109296200Y-72390000D01*
X111720000Y-76311001D02*
X110524801Y-76311001D01*
D20*
X124256800Y-77078800D02*
X124170400Y-77078800D01*
D19*
X115341400Y-88615932D02*
X115339066Y-88618266D01*
D20*
X122301000Y-76962000D02*
X121081000Y-75742000D01*
D18*
X138506200Y-56210200D02*
X138506200Y-58008932D01*
X134823200Y-56210200D02*
X138506200Y-56210200D01*
X115341400Y-88620600D02*
X116560600Y-89839800D01*
D19*
X115341400Y-86817200D02*
X115341400Y-87452200D01*
X137337800Y-87472932D02*
X137340134Y-87475266D01*
D18*
X114554000Y-86029800D02*
X115341400Y-86817200D01*
X110524801Y-76311001D02*
X109296200Y-75082400D01*
X138430000Y-87477600D02*
X130962400Y-87477600D01*
D19*
X138506200Y-58008932D02*
X138503866Y-58011266D01*
D20*
X124170400Y-77078800D02*
X124053600Y-76962000D01*
D19*
X115341400Y-87706200D02*
X115341400Y-88615932D01*
X138432334Y-87475266D02*
X138430000Y-87477600D01*
D20*
X121081000Y-75742000D02*
X112289001Y-75742000D01*
D21*
X116560600Y-89839800D02*
X128600200Y-89839800D01*
D18*
X132816600Y-54203600D02*
X134823200Y-56210200D01*
X116992400Y-54203600D02*
X132816600Y-54203600D01*
X109296200Y-72390000D02*
X109855000Y-71831200D01*
X111720000Y-76311001D02*
X111720000Y-77303000D01*
D20*
X124053600Y-76962000D02*
X122301000Y-76962000D01*
D18*
X109855000Y-63474600D02*
X115112800Y-58216800D01*
D19*
X137340134Y-87475266D02*
X138432334Y-87475266D01*
D18*
X115112800Y-56083200D02*
X116992400Y-54203600D01*
D20*
X112289001Y-75742000D02*
X111720000Y-76311001D01*
D18*
X109855000Y-71831200D02*
X109855000Y-63474600D01*
D22*
G04 #@! TO.N,VBUS*
X119507000Y-79044800D02*
X119507000Y-82550000D01*
X123900600Y-86639400D02*
X124675600Y-85864400D01*
X117449600Y-78308200D02*
X118770400Y-78308200D01*
X118770400Y-78308200D02*
X119507000Y-79044800D01*
X119875600Y-85775800D02*
X119875600Y-86017400D01*
D23*
X119888000Y-85852000D02*
X119799100Y-85940900D01*
D22*
X120497600Y-86639400D02*
X123900600Y-86639400D01*
X119875600Y-86017400D02*
X120497600Y-86639400D01*
X117424200Y-78333600D02*
X117449600Y-78308200D01*
D17*
G04 #@! TO.N,/MOSI*
X130124200Y-78282800D02*
X128422400Y-79984600D01*
X126183396Y-79625196D02*
X126183396Y-75637396D01*
X124460000Y-73914000D02*
X124460000Y-73812400D01*
X128422400Y-79984600D02*
X126542800Y-79984600D01*
X126542800Y-79984600D02*
X126183396Y-79625196D01*
X126183396Y-75637396D02*
X124460000Y-73914000D01*
G04 #@! TO.N,/IMU_INT*
X128117600Y-78181200D02*
X128117600Y-74650600D01*
X129768600Y-72999600D02*
X129768600Y-72009000D01*
X128117600Y-74650600D02*
X129768600Y-72999600D01*
X128295400Y-78359000D02*
X128117600Y-78181200D01*
G04 #@! TO.N,/SCK*
X133248400Y-72898000D02*
X134061200Y-73710800D01*
X134073201Y-73710800D02*
X134073201Y-75133200D01*
X134085901Y-75145900D02*
X133158801Y-76073000D01*
X134073201Y-75133200D02*
X134085901Y-75145900D01*
X131216400Y-72009000D02*
X131216400Y-72390000D01*
X134061200Y-73710800D02*
X134073201Y-73710800D01*
X131216400Y-72390000D02*
X131724400Y-72898000D01*
X133158801Y-76073000D02*
X133108001Y-76073000D01*
X131724400Y-72898000D02*
X133248400Y-72898000D01*
G04 #@! TO.N,/IMU_CS*
X124663200Y-72288400D02*
X123520200Y-72288400D01*
X126098300Y-73723500D02*
X124663200Y-72288400D01*
X126098300Y-74002900D02*
X126098300Y-73723500D01*
G04 #@! TO.N,/MISO*
X127203200Y-74625200D02*
X127203200Y-72034400D01*
X127076200Y-78917800D02*
X127076200Y-74752200D01*
X127152400Y-78994000D02*
X127076200Y-78917800D01*
X127076200Y-74752200D02*
X127203200Y-74625200D01*
G04 #@! TO.N,/STAT2*
X123139200Y-74396600D02*
X123266200Y-74523600D01*
X123520200Y-74523600D02*
X125450600Y-76454000D01*
X125450600Y-78155800D02*
X124739400Y-78867000D01*
X123266200Y-74523600D02*
X123520200Y-74523600D01*
X124739400Y-78867000D02*
X121996200Y-78867000D01*
X125450600Y-76454000D02*
X125450600Y-78155800D01*
G04 #@! TO.N,/ESP32-S3-WROOM/Boot*
X145288000Y-74091800D02*
X141122400Y-74091800D01*
G04 #@! TO.N,/BMP_CS*
X133807200Y-68808600D02*
X134162800Y-69164200D01*
X134162800Y-69164200D02*
X135102600Y-69164200D01*
X135102600Y-69164200D02*
X138455400Y-72517000D01*
X138455400Y-72517000D02*
X138455400Y-75311000D01*
X138455400Y-75311000D02*
X137820400Y-75946000D01*
X137820400Y-75946000D02*
X137210800Y-75946000D01*
G04 #@! TO.N,/BMP_INT*
X131978400Y-69164200D02*
X132359400Y-69545200D01*
X131978400Y-68884800D02*
X131978400Y-69164200D01*
X136499600Y-72110600D02*
X137312400Y-72923400D01*
X132359400Y-70662800D02*
X133807200Y-72110600D01*
X137312400Y-72923400D02*
X137312400Y-74625200D01*
X132359400Y-69545200D02*
X132359400Y-70662800D01*
X133807200Y-72110600D02*
X136499600Y-72110600D01*
G04 #@! TO.N,Net-(J7-CC1)*
X121940400Y-88341200D02*
X121056400Y-88341200D01*
G04 #@! TD*
G04 #@! TA.AperFunction,Conductor*
G04 #@! TO.N,GND*
G36*
X111817706Y-51559661D02*
G01*
X111817893Y-51559274D01*
X111819773Y-51560181D01*
X111820870Y-51560458D01*
X111822328Y-51561415D01*
X111822331Y-51561416D01*
X111822332Y-51561417D01*
X111845465Y-51572584D01*
X111850367Y-51575178D01*
X111872605Y-51588018D01*
X111872608Y-51588019D01*
X111872611Y-51588021D01*
X111883468Y-51590930D01*
X111893587Y-51595815D01*
X111921538Y-51601131D01*
X111949038Y-51608500D01*
X111960280Y-51608500D01*
X111971316Y-51610599D01*
X111999692Y-51608500D01*
X141133921Y-51608500D01*
X141139470Y-51608705D01*
X141165082Y-51610600D01*
X141165082Y-51610599D01*
X141165084Y-51610600D01*
X141169159Y-51609824D01*
X141183210Y-51608500D01*
X141187359Y-51608500D01*
X141187362Y-51608500D01*
X141212174Y-51601850D01*
X141217581Y-51600614D01*
X141220760Y-51600009D01*
X141242813Y-51595815D01*
X141252931Y-51590930D01*
X141263789Y-51588021D01*
X141288440Y-51573788D01*
X141314068Y-51561417D01*
X141314077Y-51561409D01*
X141315517Y-51560465D01*
X141316543Y-51560222D01*
X141318509Y-51559274D01*
X141318719Y-51559709D01*
X141365581Y-51548647D01*
X141409957Y-51570157D01*
X147896042Y-58056242D01*
X147899497Y-58063651D01*
X147906020Y-58068588D01*
X147910082Y-58086351D01*
X147917782Y-58102862D01*
X147915726Y-58111026D01*
X147917489Y-58118733D01*
X147909802Y-58143693D01*
X147906500Y-58150139D01*
X147904783Y-58152132D01*
X147893307Y-58175902D01*
X147892904Y-58176690D01*
X147891064Y-58180067D01*
X147878281Y-58202163D01*
X147878278Y-58202171D01*
X147877155Y-58206348D01*
X147875326Y-58213149D01*
X147870385Y-58223387D01*
X147865094Y-58251199D01*
X147864362Y-58253922D01*
X147864361Y-58253927D01*
X147857734Y-58278573D01*
X147857731Y-58282886D01*
X147856407Y-58296871D01*
X147855600Y-58301113D01*
X147855599Y-58301119D01*
X147857482Y-58326569D01*
X147857687Y-58332182D01*
X147832312Y-87438219D01*
X147832310Y-87440963D01*
X147830200Y-87469484D01*
X147832275Y-87480396D01*
X147832269Y-87487511D01*
X147832265Y-87491498D01*
X147832266Y-87491504D01*
X147838934Y-87516478D01*
X147839645Y-87519140D01*
X147844985Y-87547213D01*
X147849808Y-87557205D01*
X147851646Y-87564086D01*
X147851647Y-87564087D01*
X147852677Y-87567944D01*
X147852677Y-87567945D01*
X147865579Y-87590338D01*
X147865580Y-87590338D01*
X147866389Y-87591742D01*
X147866954Y-87592722D01*
X147879383Y-87618468D01*
X147886633Y-87626876D01*
X147890185Y-87633040D01*
X147890186Y-87633042D01*
X147892179Y-87636502D01*
X147892183Y-87636506D01*
X147896437Y-87640768D01*
X147918135Y-87687408D01*
X147904776Y-87737083D01*
X147897152Y-87746295D01*
X141517397Y-94313002D01*
X141501721Y-94320589D01*
X141488229Y-94331605D01*
X141479211Y-94331483D01*
X141471095Y-94335412D01*
X141454208Y-94331147D01*
X141436794Y-94330914D01*
X141424649Y-94323683D01*
X141421221Y-94322818D01*
X141414364Y-94317562D01*
X141329119Y-94244061D01*
X141325075Y-94240304D01*
X141306911Y-94222140D01*
X141306910Y-94222139D01*
X141303314Y-94220063D01*
X141291814Y-94211894D01*
X141288673Y-94209185D01*
X141277285Y-94203688D01*
X141263040Y-94196811D01*
X141238389Y-94182579D01*
X141227531Y-94179669D01*
X141221145Y-94176586D01*
X141217414Y-94174785D01*
X141201337Y-94171727D01*
X141192187Y-94169986D01*
X141186783Y-94168750D01*
X141161962Y-94162100D01*
X141150724Y-94162100D01*
X141139684Y-94160000D01*
X141111300Y-94162100D01*
X112002479Y-94162100D01*
X111996930Y-94161895D01*
X111971317Y-94159999D01*
X111968188Y-94160595D01*
X111967240Y-94160775D01*
X111953190Y-94162100D01*
X111949038Y-94162100D01*
X111943874Y-94163483D01*
X111924218Y-94168749D01*
X111921529Y-94169469D01*
X111893587Y-94174785D01*
X111883472Y-94179666D01*
X111876627Y-94181501D01*
X111876627Y-94181502D01*
X111872616Y-94182577D01*
X111872613Y-94182578D01*
X111872611Y-94182579D01*
X111850363Y-94195423D01*
X111850362Y-94195422D01*
X111847941Y-94196819D01*
X111822332Y-94209183D01*
X111813824Y-94216517D01*
X111807695Y-94220056D01*
X111807696Y-94220056D01*
X111804094Y-94222136D01*
X111804089Y-94222140D01*
X111785923Y-94240304D01*
X111781858Y-94244079D01*
X111684493Y-94328030D01*
X111636396Y-94346270D01*
X111587827Y-94329327D01*
X111581166Y-94323183D01*
X109314928Y-91964957D01*
X105234773Y-87719187D01*
X105213965Y-87672144D01*
X105223125Y-87630800D01*
X105226912Y-87623924D01*
X105231617Y-87618468D01*
X105243667Y-87593504D01*
X105244638Y-87591742D01*
X105244723Y-87591666D01*
X105245363Y-87590457D01*
X105258221Y-87568189D01*
X105259297Y-87564171D01*
X105264211Y-87550948D01*
X105266015Y-87547213D01*
X105270813Y-87521984D01*
X105272044Y-87516598D01*
X105278700Y-87491762D01*
X105278700Y-87480519D01*
X105280799Y-87469484D01*
X105278700Y-87441108D01*
X105278700Y-72297387D01*
X108355900Y-72297387D01*
X108355900Y-75175012D01*
X108361460Y-75202962D01*
X108361460Y-75202963D01*
X108392035Y-75356677D01*
X108392036Y-75356678D01*
X108462916Y-75527797D01*
X108462917Y-75527799D01*
X108564177Y-75679346D01*
X108565822Y-75681807D01*
X108565824Y-75681809D01*
X109925388Y-77041374D01*
X109925397Y-77041382D01*
X110079398Y-77144282D01*
X110079401Y-77144284D01*
X110250521Y-77215164D01*
X110250522Y-77215165D01*
X110250523Y-77215165D01*
X110250525Y-77215166D01*
X110372180Y-77239364D01*
X110432188Y-77251301D01*
X110432189Y-77251301D01*
X110432190Y-77251301D01*
X110704500Y-77251301D01*
X110752838Y-77268894D01*
X110778558Y-77313443D01*
X110779700Y-77326501D01*
X110779700Y-77395611D01*
X110815835Y-77577277D01*
X110815836Y-77577278D01*
X110886716Y-77748397D01*
X110886717Y-77748399D01*
X110971910Y-77875900D01*
X110989622Y-77902407D01*
X110989624Y-77902409D01*
X110989626Y-77902412D01*
X113591674Y-80504459D01*
X113613414Y-80551079D01*
X113613700Y-80557633D01*
X113613700Y-86122413D01*
X113642509Y-86267243D01*
X113649835Y-86304077D01*
X113649836Y-86304078D01*
X113720716Y-86475197D01*
X113720717Y-86475199D01*
X113774557Y-86555777D01*
X113823622Y-86629207D01*
X113823624Y-86629209D01*
X113823626Y-86629212D01*
X114379074Y-87184659D01*
X114400814Y-87231279D01*
X114401100Y-87237833D01*
X114401100Y-88713211D01*
X114437235Y-88894877D01*
X114437236Y-88894878D01*
X114508116Y-89065997D01*
X114508117Y-89065999D01*
X114600525Y-89204298D01*
X114600526Y-89204299D01*
X114600525Y-89204299D01*
X114611018Y-89220002D01*
X114611025Y-89220010D01*
X115961187Y-90570173D01*
X115961196Y-90570181D01*
X116026028Y-90613500D01*
X116115200Y-90673083D01*
X116286320Y-90743963D01*
X116286321Y-90743964D01*
X116286322Y-90743964D01*
X116286324Y-90743965D01*
X116407979Y-90768163D01*
X116467987Y-90780100D01*
X116467988Y-90780100D01*
X116653213Y-90780100D01*
X116695773Y-90771634D01*
X116834875Y-90743965D01*
X117000680Y-90675285D01*
X117052068Y-90673042D01*
X117092878Y-90704357D01*
X117104012Y-90754577D01*
X117091983Y-90786539D01*
X117069411Y-90820321D01*
X116994030Y-91002307D01*
X116994029Y-91002308D01*
X116955600Y-91195508D01*
X116955600Y-91444000D01*
X117655600Y-91444000D01*
X117655600Y-91944000D01*
X116955600Y-91944000D01*
X116955600Y-92192491D01*
X116994029Y-92385691D01*
X116994030Y-92385692D01*
X117069410Y-92567676D01*
X117178851Y-92731465D01*
X117178853Y-92731468D01*
X117318131Y-92870746D01*
X117318134Y-92870748D01*
X117481923Y-92980189D01*
X117663910Y-93055570D01*
X117663909Y-93055570D01*
X117705599Y-93063863D01*
X117705600Y-93063863D01*
X117705600Y-92260988D01*
X117715540Y-92278205D01*
X117771395Y-92334060D01*
X117839804Y-92373556D01*
X117916104Y-92394000D01*
X117995096Y-92394000D01*
X118071396Y-92373556D01*
X118139805Y-92334060D01*
X118195660Y-92278205D01*
X118205600Y-92260988D01*
X118205600Y-93063863D01*
X118247290Y-93055570D01*
X118429276Y-92980189D01*
X118593065Y-92870748D01*
X118593068Y-92870746D01*
X118732346Y-92731468D01*
X118732348Y-92731465D01*
X118841789Y-92567676D01*
X118917169Y-92385692D01*
X118917170Y-92385691D01*
X118955600Y-92192491D01*
X118955600Y-91944000D01*
X118255600Y-91944000D01*
X118255600Y-91444000D01*
X118955600Y-91444000D01*
X118955600Y-91195508D01*
X118917170Y-91002308D01*
X118917169Y-91002307D01*
X118841789Y-90820323D01*
X118732348Y-90656534D01*
X118732346Y-90656531D01*
X118704889Y-90629074D01*
X118683149Y-90582454D01*
X118696463Y-90532767D01*
X118738600Y-90503262D01*
X118758063Y-90500700D01*
X125793137Y-90500700D01*
X125841475Y-90518293D01*
X125867195Y-90562842D01*
X125858262Y-90613500D01*
X125846311Y-90629074D01*
X125818853Y-90656531D01*
X125818851Y-90656534D01*
X125709410Y-90820323D01*
X125634030Y-91002307D01*
X125634029Y-91002308D01*
X125595600Y-91195508D01*
X125595600Y-91444000D01*
X126295600Y-91444000D01*
X126295600Y-91944000D01*
X125595600Y-91944000D01*
X125595600Y-92192491D01*
X125634029Y-92385691D01*
X125634030Y-92385692D01*
X125709410Y-92567676D01*
X125818851Y-92731465D01*
X125818853Y-92731468D01*
X125958131Y-92870746D01*
X125958134Y-92870748D01*
X126121923Y-92980189D01*
X126303910Y-93055570D01*
X126303909Y-93055570D01*
X126345599Y-93063863D01*
X126345600Y-93063863D01*
X126345600Y-92260988D01*
X126355540Y-92278205D01*
X126411395Y-92334060D01*
X126479804Y-92373556D01*
X126556104Y-92394000D01*
X126635096Y-92394000D01*
X126711396Y-92373556D01*
X126779805Y-92334060D01*
X126835660Y-92278205D01*
X126845600Y-92260988D01*
X126845600Y-93063863D01*
X126887290Y-93055570D01*
X127069276Y-92980189D01*
X127233065Y-92870748D01*
X127233068Y-92870746D01*
X127372346Y-92731468D01*
X127372348Y-92731465D01*
X127481789Y-92567676D01*
X127557169Y-92385692D01*
X127557170Y-92385691D01*
X127595600Y-92192491D01*
X127595600Y-91944000D01*
X126895600Y-91944000D01*
X126895600Y-91444000D01*
X127595600Y-91444000D01*
X127595600Y-91195509D01*
X127592750Y-91181183D01*
X127592750Y-91181182D01*
X127590419Y-91169461D01*
X130393700Y-91169461D01*
X130393700Y-91354938D01*
X130422711Y-91538109D01*
X130422714Y-91538123D01*
X130463977Y-91665119D01*
X130480026Y-91714510D01*
X130564227Y-91879764D01*
X130656499Y-92006764D01*
X130673244Y-92029812D01*
X130673251Y-92029820D01*
X130804379Y-92160948D01*
X130804387Y-92160955D01*
X130804389Y-92160957D01*
X130954436Y-92269973D01*
X131119690Y-92354174D01*
X131296081Y-92411487D01*
X131479266Y-92440500D01*
X131479272Y-92440500D01*
X131664728Y-92440500D01*
X131664734Y-92440500D01*
X131847919Y-92411487D01*
X132024310Y-92354174D01*
X132189564Y-92269973D01*
X132339611Y-92160957D01*
X132470757Y-92029811D01*
X132579773Y-91879764D01*
X132663974Y-91714510D01*
X132721287Y-91538119D01*
X132750300Y-91354934D01*
X132750300Y-91296461D01*
X134762500Y-91296461D01*
X134762500Y-91481938D01*
X134791511Y-91665109D01*
X134791514Y-91665123D01*
X134807557Y-91714499D01*
X134848826Y-91841510D01*
X134933027Y-92006764D01*
X134949779Y-92029820D01*
X135042044Y-92156812D01*
X135042051Y-92156820D01*
X135173179Y-92287948D01*
X135173187Y-92287955D01*
X135173189Y-92287957D01*
X135323236Y-92396973D01*
X135488490Y-92481174D01*
X135664881Y-92538487D01*
X135848066Y-92567500D01*
X135848072Y-92567500D01*
X136033528Y-92567500D01*
X136033534Y-92567500D01*
X136216719Y-92538487D01*
X136393110Y-92481174D01*
X136558364Y-92396973D01*
X136708411Y-92287957D01*
X136839557Y-92156811D01*
X136948573Y-92006764D01*
X137032774Y-91841510D01*
X137090087Y-91665119D01*
X137119100Y-91481934D01*
X137119100Y-91296466D01*
X137090087Y-91113281D01*
X137032774Y-90936890D01*
X136948573Y-90771636D01*
X136839557Y-90621589D01*
X136839555Y-90621587D01*
X136839548Y-90621579D01*
X136708420Y-90490451D01*
X136708412Y-90490444D01*
X136558365Y-90381428D01*
X136558366Y-90381428D01*
X136558364Y-90381427D01*
X136393110Y-90297226D01*
X136393103Y-90297223D01*
X136393099Y-90297222D01*
X136216723Y-90239914D01*
X136216720Y-90239913D01*
X136216719Y-90239913D01*
X136216716Y-90239912D01*
X136216709Y-90239911D01*
X136033538Y-90210900D01*
X136033534Y-90210900D01*
X135848066Y-90210900D01*
X135848061Y-90210900D01*
X135664890Y-90239911D01*
X135664876Y-90239914D01*
X135488500Y-90297222D01*
X135488492Y-90297225D01*
X135488490Y-90297226D01*
X135488486Y-90297227D01*
X135488486Y-90297228D01*
X135323234Y-90381428D01*
X135173187Y-90490444D01*
X135173179Y-90490451D01*
X135042051Y-90621579D01*
X135042044Y-90621587D01*
X134933028Y-90771634D01*
X134848828Y-90936886D01*
X134848822Y-90936900D01*
X134791514Y-91113276D01*
X134791511Y-91113290D01*
X134762500Y-91296461D01*
X132750300Y-91296461D01*
X132750300Y-91169466D01*
X132721287Y-90986281D01*
X132663974Y-90809890D01*
X132579773Y-90644636D01*
X132470757Y-90494589D01*
X132470755Y-90494587D01*
X132470748Y-90494579D01*
X132339620Y-90363451D01*
X132339612Y-90363444D01*
X132248472Y-90297226D01*
X132189564Y-90254427D01*
X132024310Y-90170226D01*
X132024303Y-90170223D01*
X132024299Y-90170222D01*
X131847923Y-90112914D01*
X131847920Y-90112913D01*
X131847919Y-90112913D01*
X131847916Y-90112912D01*
X131847909Y-90112911D01*
X131664738Y-90083900D01*
X131664734Y-90083900D01*
X131479266Y-90083900D01*
X131479261Y-90083900D01*
X131296090Y-90112911D01*
X131296076Y-90112914D01*
X131119700Y-90170222D01*
X131119692Y-90170225D01*
X131119690Y-90170226D01*
X131119686Y-90170227D01*
X131119686Y-90170228D01*
X130954434Y-90254428D01*
X130804387Y-90363444D01*
X130804379Y-90363451D01*
X130673251Y-90494579D01*
X130673244Y-90494587D01*
X130564228Y-90644634D01*
X130480028Y-90809886D01*
X130480022Y-90809900D01*
X130422714Y-90986276D01*
X130422711Y-90986290D01*
X130393700Y-91169461D01*
X127590419Y-91169461D01*
X127557170Y-91002308D01*
X127557169Y-91002307D01*
X127481789Y-90820323D01*
X127372348Y-90656534D01*
X127372346Y-90656531D01*
X127344889Y-90629074D01*
X127323149Y-90582454D01*
X127336463Y-90532767D01*
X127378600Y-90503262D01*
X127398063Y-90500700D01*
X127900167Y-90500700D01*
X127948505Y-90518293D01*
X127953330Y-90522715D01*
X128000793Y-90570178D01*
X128154801Y-90673083D01*
X128325925Y-90743965D01*
X128462172Y-90771066D01*
X128507587Y-90780100D01*
X128507588Y-90780100D01*
X128692813Y-90780100D01*
X128735373Y-90771634D01*
X128874475Y-90743965D01*
X129045599Y-90673083D01*
X129199607Y-90570178D01*
X131329859Y-88439926D01*
X131376479Y-88418186D01*
X131383033Y-88417900D01*
X138522612Y-88417900D01*
X138567719Y-88408927D01*
X138704275Y-88381765D01*
X138875399Y-88310883D01*
X139029406Y-88207979D01*
X139160379Y-88077006D01*
X139263283Y-87922999D01*
X139334165Y-87751875D01*
X139370300Y-87570211D01*
X139370300Y-87384989D01*
X139361480Y-87340650D01*
X139334164Y-87203322D01*
X139334163Y-87203321D01*
X139263283Y-87032202D01*
X139263283Y-87032201D01*
X139160379Y-86878194D01*
X139160376Y-86878191D01*
X139160374Y-86878188D01*
X139029411Y-86747225D01*
X139029408Y-86747223D01*
X139029407Y-86747222D01*
X139029406Y-86747221D01*
X138875399Y-86644317D01*
X138875397Y-86644316D01*
X138704278Y-86573436D01*
X138704277Y-86573435D01*
X138522612Y-86537300D01*
X138522611Y-86537300D01*
X131055012Y-86537300D01*
X130869788Y-86537300D01*
X130869787Y-86537300D01*
X130688121Y-86573435D01*
X130688120Y-86573436D01*
X130516997Y-86644318D01*
X130362996Y-86747218D01*
X130362987Y-86747226D01*
X127953341Y-89156874D01*
X127906721Y-89178614D01*
X127900167Y-89178900D01*
X126879969Y-89178900D01*
X126831631Y-89161307D01*
X126805911Y-89116758D01*
X126814844Y-89066100D01*
X126854249Y-89033035D01*
X126865298Y-89029945D01*
X126887291Y-89025570D01*
X126887292Y-89025569D01*
X127069276Y-88950189D01*
X127233065Y-88840748D01*
X127233068Y-88840746D01*
X127372346Y-88701468D01*
X127372348Y-88701465D01*
X127481789Y-88537676D01*
X127557169Y-88355692D01*
X127557170Y-88355691D01*
X127595600Y-88162491D01*
X127595600Y-87764000D01*
X126895600Y-87764000D01*
X126895600Y-87264000D01*
X127595600Y-87264000D01*
X127595600Y-86865508D01*
X127557170Y-86672308D01*
X127557169Y-86672307D01*
X127481789Y-86490323D01*
X127372348Y-86326534D01*
X127372346Y-86326531D01*
X127233068Y-86187253D01*
X127233065Y-86187251D01*
X127069276Y-86077810D01*
X126887287Y-86002428D01*
X126845600Y-85994136D01*
X126845600Y-86797011D01*
X126835660Y-86779795D01*
X126779805Y-86723940D01*
X126711396Y-86684444D01*
X126635096Y-86664000D01*
X126556104Y-86664000D01*
X126479804Y-86684444D01*
X126411395Y-86723940D01*
X126355540Y-86779795D01*
X126345600Y-86797011D01*
X126345600Y-85994136D01*
X126345599Y-85994136D01*
X126303912Y-86002428D01*
X126121923Y-86077810D01*
X125958134Y-86187251D01*
X125958131Y-86187253D01*
X125818853Y-86326531D01*
X125818851Y-86326534D01*
X125709410Y-86490323D01*
X125634030Y-86672307D01*
X125634029Y-86672308D01*
X125595600Y-86865508D01*
X125595600Y-87264000D01*
X126295600Y-87264000D01*
X126295600Y-87764000D01*
X125729210Y-87764000D01*
X125680872Y-87746407D01*
X125664085Y-87726400D01*
X125626115Y-87660634D01*
X125518965Y-87553484D01*
X125387742Y-87477722D01*
X125387736Y-87477720D01*
X125387735Y-87477719D01*
X125241366Y-87438500D01*
X125089834Y-87438500D01*
X124974199Y-87469484D01*
X124943465Y-87477719D01*
X124943457Y-87477722D01*
X124812234Y-87553484D01*
X124705084Y-87660634D01*
X124629322Y-87791857D01*
X124629319Y-87791865D01*
X124590100Y-87938234D01*
X124590100Y-88089766D01*
X124621774Y-88207976D01*
X124629319Y-88236134D01*
X124629322Y-88236142D01*
X124705084Y-88367365D01*
X124812234Y-88474515D01*
X124943457Y-88550277D01*
X124943460Y-88550278D01*
X124943465Y-88550281D01*
X125089834Y-88589500D01*
X125089837Y-88589500D01*
X125241363Y-88589500D01*
X125241366Y-88589500D01*
X125387735Y-88550281D01*
X125518965Y-88474515D01*
X125555550Y-88437929D01*
X125602169Y-88416190D01*
X125651856Y-88429503D01*
X125678200Y-88462327D01*
X125709409Y-88537675D01*
X125818851Y-88701465D01*
X125818853Y-88701468D01*
X125958131Y-88840746D01*
X125958134Y-88840748D01*
X126121923Y-88950189D01*
X126303907Y-89025569D01*
X126303908Y-89025570D01*
X126325902Y-89029945D01*
X126369878Y-89056631D01*
X126386413Y-89105341D01*
X126367769Y-89153283D01*
X126322671Y-89178025D01*
X126311231Y-89178900D01*
X122851113Y-89178900D01*
X122802775Y-89161307D01*
X122777055Y-89116758D01*
X122785988Y-89066100D01*
X122825393Y-89033035D01*
X122841298Y-89029143D01*
X122867033Y-89025754D01*
X123012990Y-88965298D01*
X123138325Y-88869125D01*
X123234498Y-88743790D01*
X123294955Y-88597833D01*
X123302411Y-88541200D01*
X122655600Y-88541200D01*
X122607262Y-88523607D01*
X122581542Y-88479058D01*
X122580400Y-88466000D01*
X122580400Y-88341200D01*
X122455600Y-88341200D01*
X122407262Y-88323607D01*
X122381542Y-88279058D01*
X122380400Y-88266000D01*
X122380400Y-88141200D01*
X122780400Y-88141200D01*
X123302410Y-88141200D01*
X123294955Y-88084566D01*
X123234498Y-87938609D01*
X123138325Y-87813274D01*
X123012990Y-87717101D01*
X122867033Y-87656644D01*
X122780400Y-87645238D01*
X122780400Y-88141200D01*
X122380400Y-88141200D01*
X122380400Y-87645239D01*
X122293765Y-87656645D01*
X122147809Y-87717101D01*
X122022474Y-87813274D01*
X121930238Y-87933479D01*
X121886854Y-87961118D01*
X121870578Y-87962900D01*
X121768844Y-87962900D01*
X121753334Y-87964699D01*
X121745578Y-87965599D01*
X121745576Y-87965599D01*
X121650401Y-88007623D01*
X121650398Y-88007625D01*
X121634574Y-88023449D01*
X121618749Y-88039274D01*
X121603871Y-88046212D01*
X121591296Y-88056765D01*
X121575130Y-88059615D01*
X121572131Y-88061014D01*
X121565576Y-88061300D01*
X121554711Y-88061300D01*
X121506373Y-88043707D01*
X121489586Y-88023700D01*
X121483626Y-88013377D01*
X121384224Y-87913975D01*
X121262478Y-87843684D01*
X121126689Y-87807300D01*
X120986111Y-87807300D01*
X120850322Y-87843684D01*
X120850321Y-87843684D01*
X120728575Y-87913975D01*
X120728575Y-87913976D01*
X120629176Y-88013375D01*
X120629175Y-88013375D01*
X120558884Y-88135121D01*
X120558884Y-88135122D01*
X120522500Y-88270911D01*
X120522500Y-88411489D01*
X120558884Y-88547277D01*
X120558884Y-88547278D01*
X120629175Y-88669024D01*
X120728575Y-88768424D01*
X120728577Y-88768425D01*
X120728578Y-88768426D01*
X120850322Y-88838716D01*
X120986111Y-88875100D01*
X120986114Y-88875100D01*
X121126686Y-88875100D01*
X121126689Y-88875100D01*
X121262478Y-88838716D01*
X121384222Y-88768426D01*
X121384224Y-88768424D01*
X121384225Y-88768424D01*
X121483626Y-88669022D01*
X121489586Y-88658700D01*
X121528991Y-88625635D01*
X121554711Y-88621100D01*
X121565576Y-88621100D01*
X121613914Y-88638693D01*
X121618739Y-88643115D01*
X121644646Y-88669022D01*
X121650398Y-88674774D01*
X121650401Y-88674776D01*
X121710853Y-88701468D01*
X121745579Y-88716801D01*
X121768844Y-88719500D01*
X121768846Y-88719500D01*
X121870578Y-88719500D01*
X121918916Y-88737093D01*
X121930238Y-88748921D01*
X122022474Y-88869125D01*
X122147809Y-88965298D01*
X122293765Y-89025754D01*
X122319501Y-89029143D01*
X122365128Y-89052896D01*
X122384813Y-89100420D01*
X122369345Y-89149479D01*
X122325961Y-89177117D01*
X122309685Y-89178900D01*
X118239969Y-89178900D01*
X118191631Y-89161307D01*
X118165911Y-89116758D01*
X118174844Y-89066100D01*
X118214249Y-89033035D01*
X118225298Y-89029945D01*
X118247291Y-89025570D01*
X118247292Y-89025569D01*
X118429276Y-88950189D01*
X118593065Y-88840748D01*
X118593068Y-88840746D01*
X118732346Y-88701468D01*
X118732348Y-88701465D01*
X118841790Y-88537675D01*
X118872999Y-88462327D01*
X118907750Y-88424401D01*
X118958750Y-88417686D01*
X118995649Y-88437930D01*
X119032234Y-88474515D01*
X119163457Y-88550277D01*
X119163460Y-88550278D01*
X119163465Y-88550281D01*
X119309834Y-88589500D01*
X119309837Y-88589500D01*
X119461363Y-88589500D01*
X119461366Y-88589500D01*
X119607735Y-88550281D01*
X119738965Y-88474515D01*
X119846115Y-88367365D01*
X119921881Y-88236135D01*
X119961100Y-88089766D01*
X119961100Y-87938234D01*
X119921881Y-87791865D01*
X119921878Y-87791860D01*
X119921877Y-87791857D01*
X119846115Y-87660634D01*
X119738965Y-87553484D01*
X119607742Y-87477722D01*
X119607736Y-87477720D01*
X119607735Y-87477719D01*
X119461366Y-87438500D01*
X119309834Y-87438500D01*
X119194199Y-87469484D01*
X119163465Y-87477719D01*
X119163457Y-87477722D01*
X119032234Y-87553484D01*
X118925084Y-87660634D01*
X118887115Y-87726400D01*
X118847710Y-87759465D01*
X118821990Y-87764000D01*
X118255600Y-87764000D01*
X118255600Y-87264000D01*
X118955600Y-87264000D01*
X118955600Y-86865508D01*
X118917170Y-86672308D01*
X118917169Y-86672307D01*
X118841789Y-86490323D01*
X118732348Y-86326534D01*
X118732346Y-86326531D01*
X118593068Y-86187253D01*
X118593065Y-86187251D01*
X118429276Y-86077810D01*
X118247287Y-86002428D01*
X118205600Y-85994136D01*
X118205600Y-86797011D01*
X118195660Y-86779795D01*
X118139805Y-86723940D01*
X118071396Y-86684444D01*
X117995096Y-86664000D01*
X117916104Y-86664000D01*
X117839804Y-86684444D01*
X117771395Y-86723940D01*
X117715540Y-86779795D01*
X117705600Y-86797011D01*
X117705600Y-85994136D01*
X117705599Y-85994136D01*
X117663912Y-86002428D01*
X117481923Y-86077810D01*
X117318134Y-86187251D01*
X117318131Y-86187253D01*
X117178853Y-86326531D01*
X117178851Y-86326534D01*
X117069410Y-86490323D01*
X116994030Y-86672307D01*
X116994029Y-86672308D01*
X116955600Y-86865508D01*
X116955600Y-87264000D01*
X117655600Y-87264000D01*
X117655600Y-87764000D01*
X116955600Y-87764000D01*
X116955600Y-88162491D01*
X116994029Y-88355691D01*
X116994030Y-88355692D01*
X117069410Y-88537676D01*
X117178851Y-88701465D01*
X117178853Y-88701468D01*
X117318131Y-88840746D01*
X117318134Y-88840748D01*
X117481923Y-88950189D01*
X117663907Y-89025569D01*
X117663908Y-89025570D01*
X117685902Y-89029945D01*
X117729878Y-89056631D01*
X117746413Y-89105341D01*
X117727769Y-89153283D01*
X117682671Y-89178025D01*
X117671231Y-89178900D01*
X117260633Y-89178900D01*
X117212295Y-89161307D01*
X117207459Y-89156874D01*
X116303726Y-88253141D01*
X116281986Y-88206521D01*
X116281700Y-88199967D01*
X116281700Y-86724588D01*
X116275410Y-86692969D01*
X116275410Y-86692968D01*
X116251634Y-86573436D01*
X116245565Y-86542925D01*
X116174683Y-86371801D01*
X116071779Y-86217794D01*
X116071776Y-86217791D01*
X116071774Y-86217788D01*
X115559497Y-85705511D01*
X119341700Y-85705511D01*
X119341700Y-85846089D01*
X119378084Y-85981877D01*
X119378084Y-85981878D01*
X119448375Y-86103624D01*
X119473842Y-86129091D01*
X119493305Y-86162798D01*
X119496428Y-86174454D01*
X119496429Y-86174456D01*
X119496430Y-86174458D01*
X119542252Y-86253824D01*
X119549998Y-86267241D01*
X119550002Y-86267247D01*
X120247752Y-86964997D01*
X120247755Y-86964999D01*
X120247757Y-86965001D01*
X120340543Y-87018570D01*
X120444030Y-87046300D01*
X120444031Y-87046300D01*
X120444033Y-87046300D01*
X123954168Y-87046300D01*
X123954170Y-87046300D01*
X124057658Y-87018570D01*
X124150443Y-86965001D01*
X124732917Y-86382525D01*
X124779537Y-86360786D01*
X124786091Y-86360500D01*
X124809686Y-86360500D01*
X124809689Y-86360500D01*
X124945478Y-86324116D01*
X125067222Y-86253826D01*
X125067224Y-86253824D01*
X125067225Y-86253824D01*
X125166624Y-86154425D01*
X125166624Y-86154424D01*
X125166626Y-86154422D01*
X125236916Y-86032678D01*
X125273300Y-85896889D01*
X125273300Y-85756311D01*
X125236916Y-85620522D01*
X125166626Y-85498778D01*
X125166625Y-85498777D01*
X125166624Y-85498775D01*
X125067224Y-85399375D01*
X124945478Y-85329084D01*
X124809689Y-85292700D01*
X124669111Y-85292700D01*
X124533322Y-85329084D01*
X124533321Y-85329084D01*
X124411575Y-85399375D01*
X124411575Y-85399376D01*
X124312176Y-85498775D01*
X124312175Y-85498775D01*
X124241884Y-85620521D01*
X124241884Y-85620522D01*
X124209710Y-85740598D01*
X124190246Y-85774309D01*
X123754082Y-86210474D01*
X123707462Y-86232214D01*
X123700908Y-86232500D01*
X120697292Y-86232500D01*
X120648954Y-86214907D01*
X120644118Y-86210474D01*
X120412777Y-85979133D01*
X120391037Y-85932513D01*
X120393312Y-85906501D01*
X120409500Y-85846089D01*
X120409500Y-85705511D01*
X120373116Y-85569722D01*
X120302826Y-85447978D01*
X120302825Y-85447977D01*
X120302824Y-85447975D01*
X120203424Y-85348575D01*
X120081678Y-85278284D01*
X119945889Y-85241900D01*
X119805311Y-85241900D01*
X119669522Y-85278284D01*
X119669521Y-85278284D01*
X119547775Y-85348575D01*
X119547775Y-85348576D01*
X119448376Y-85447975D01*
X119448375Y-85447975D01*
X119378084Y-85569721D01*
X119378084Y-85569722D01*
X119341700Y-85705511D01*
X115559497Y-85705511D01*
X115516326Y-85662340D01*
X115494586Y-85615720D01*
X115494300Y-85609166D01*
X115494300Y-80044387D01*
X115494299Y-80044386D01*
X115479371Y-79969336D01*
X115475078Y-79947750D01*
X115458165Y-79862724D01*
X115387283Y-79691600D01*
X115381319Y-79682674D01*
X115284381Y-79537596D01*
X115284373Y-79537587D01*
X114010097Y-78263311D01*
X116890300Y-78263311D01*
X116890300Y-78403889D01*
X116926549Y-78539175D01*
X116926684Y-78539677D01*
X116926684Y-78539678D01*
X116996975Y-78661424D01*
X117096375Y-78760824D01*
X117096377Y-78760825D01*
X117096378Y-78760826D01*
X117218122Y-78831116D01*
X117353911Y-78867500D01*
X117353914Y-78867500D01*
X117494486Y-78867500D01*
X117494489Y-78867500D01*
X117630278Y-78831116D01*
X117752022Y-78760826D01*
X117775721Y-78737127D01*
X117822341Y-78715386D01*
X117828896Y-78715100D01*
X118570708Y-78715100D01*
X118619046Y-78732693D01*
X118623882Y-78737126D01*
X119078074Y-79191318D01*
X119099814Y-79237938D01*
X119100100Y-79244492D01*
X119100100Y-82170703D01*
X119082507Y-82219041D01*
X119080504Y-82221225D01*
X119079775Y-82222175D01*
X119009484Y-82343921D01*
X119009484Y-82343922D01*
X118973100Y-82479711D01*
X118973100Y-82620289D01*
X119009484Y-82756077D01*
X119009484Y-82756078D01*
X119079775Y-82877824D01*
X119179175Y-82977224D01*
X119179177Y-82977225D01*
X119179178Y-82977226D01*
X119300922Y-83047516D01*
X119436711Y-83083900D01*
X119436714Y-83083900D01*
X119577286Y-83083900D01*
X119577289Y-83083900D01*
X119713078Y-83047516D01*
X119834822Y-82977226D01*
X119834824Y-82977224D01*
X119834825Y-82977224D01*
X119934224Y-82877825D01*
X119934224Y-82877824D01*
X119934226Y-82877822D01*
X120004516Y-82756078D01*
X120040900Y-82620289D01*
X120040900Y-82479711D01*
X120004516Y-82343922D01*
X119934226Y-82222178D01*
X119934225Y-82222177D01*
X119934224Y-82222175D01*
X119931224Y-82218265D01*
X119932759Y-82217086D01*
X119914186Y-82177257D01*
X119913900Y-82170703D01*
X119913900Y-81314344D01*
X136549000Y-81314344D01*
X136549000Y-81550455D01*
X136585933Y-81783643D01*
X136585936Y-81783655D01*
X136658892Y-82008189D01*
X136658898Y-82008203D01*
X136766086Y-82218571D01*
X136766093Y-82218584D01*
X136826339Y-82301505D01*
X136826340Y-82301506D01*
X137566037Y-81561809D01*
X137583075Y-81625393D01*
X137648901Y-81739407D01*
X137741993Y-81832499D01*
X137856007Y-81898325D01*
X137919589Y-81915362D01*
X137179892Y-82655058D01*
X137179893Y-82655059D01*
X137262824Y-82715312D01*
X137473196Y-82822501D01*
X137473210Y-82822507D01*
X137697744Y-82895463D01*
X137697756Y-82895466D01*
X137930944Y-82932399D01*
X137930951Y-82932400D01*
X138167049Y-82932400D01*
X138167055Y-82932399D01*
X138400243Y-82895466D01*
X138400255Y-82895463D01*
X138624789Y-82822507D01*
X138624803Y-82822501D01*
X138835172Y-82715313D01*
X138918106Y-82655058D01*
X138178410Y-81915362D01*
X138241993Y-81898325D01*
X138356007Y-81832499D01*
X138449099Y-81739407D01*
X138514925Y-81625393D01*
X138531962Y-81561810D01*
X139271658Y-82301506D01*
X139331913Y-82218572D01*
X139439101Y-82008203D01*
X139439107Y-82008189D01*
X139512063Y-81783655D01*
X139512066Y-81783643D01*
X139548999Y-81550455D01*
X139549000Y-81550448D01*
X139549000Y-81314351D01*
X139548999Y-81314344D01*
X139512066Y-81081156D01*
X139512063Y-81081144D01*
X139439107Y-80856610D01*
X139439101Y-80856596D01*
X139331912Y-80646224D01*
X139271659Y-80563293D01*
X139271658Y-80563292D01*
X138531962Y-81302988D01*
X138514925Y-81239407D01*
X138449099Y-81125393D01*
X138356007Y-81032301D01*
X138241993Y-80966475D01*
X138178409Y-80949437D01*
X138918106Y-80209740D01*
X138918105Y-80209739D01*
X138835184Y-80149493D01*
X138835171Y-80149486D01*
X138624803Y-80042298D01*
X138624789Y-80042292D01*
X138400255Y-79969336D01*
X138400243Y-79969333D01*
X138167055Y-79932400D01*
X137930944Y-79932400D01*
X137697756Y-79969333D01*
X137697744Y-79969336D01*
X137473210Y-80042292D01*
X137473196Y-80042298D01*
X137262828Y-80149486D01*
X137262824Y-80149488D01*
X137179892Y-80209740D01*
X137919590Y-80949437D01*
X137856007Y-80966475D01*
X137741993Y-81032301D01*
X137648901Y-81125393D01*
X137583075Y-81239407D01*
X137566037Y-81302989D01*
X136826340Y-80563292D01*
X136766088Y-80646224D01*
X136766086Y-80646228D01*
X136658898Y-80856596D01*
X136658892Y-80856610D01*
X136585936Y-81081144D01*
X136585933Y-81081156D01*
X136549000Y-81314344D01*
X119913900Y-81314344D01*
X119913900Y-78991232D01*
X119895808Y-78923713D01*
X119886170Y-78887743D01*
X119852638Y-78829663D01*
X119852451Y-78829340D01*
X119852451Y-78829338D01*
X119833614Y-78796711D01*
X121462300Y-78796711D01*
X121462300Y-78937289D01*
X121496329Y-79064289D01*
X121498684Y-79073077D01*
X121498684Y-79073078D01*
X121568975Y-79194824D01*
X121668375Y-79294224D01*
X121668377Y-79294225D01*
X121668378Y-79294226D01*
X121790122Y-79364516D01*
X121925911Y-79400900D01*
X121925914Y-79400900D01*
X122066486Y-79400900D01*
X122066489Y-79400900D01*
X122202278Y-79364516D01*
X122324022Y-79294226D01*
X122324024Y-79294224D01*
X122324025Y-79294224D01*
X122423426Y-79194822D01*
X122429386Y-79184500D01*
X122468791Y-79151435D01*
X122494511Y-79146900D01*
X124776248Y-79146900D01*
X124776250Y-79146900D01*
X124847437Y-79127825D01*
X124911262Y-79090976D01*
X125674576Y-78327662D01*
X125711425Y-78263837D01*
X125730500Y-78192650D01*
X125730500Y-78118950D01*
X125730500Y-76417150D01*
X125711425Y-76345963D01*
X125674576Y-76282138D01*
X125622462Y-76230024D01*
X124666588Y-75274150D01*
X123692064Y-74299625D01*
X123688144Y-74297362D01*
X123655080Y-74257955D01*
X123653108Y-74251701D01*
X123644528Y-74219679D01*
X123636716Y-74190522D01*
X123566426Y-74068778D01*
X123566425Y-74068777D01*
X123566424Y-74068775D01*
X123467024Y-73969375D01*
X123345278Y-73899084D01*
X123209489Y-73862700D01*
X123068911Y-73862700D01*
X122933122Y-73899084D01*
X122933121Y-73899084D01*
X122811375Y-73969375D01*
X122811375Y-73969376D01*
X122711976Y-74068775D01*
X122711975Y-74068775D01*
X122641684Y-74190521D01*
X122641684Y-74190522D01*
X122605300Y-74326311D01*
X122605300Y-74466889D01*
X122638104Y-74589316D01*
X122641684Y-74602677D01*
X122641684Y-74602678D01*
X122711975Y-74724424D01*
X122811375Y-74823824D01*
X122811377Y-74823825D01*
X122811378Y-74823826D01*
X122933122Y-74894116D01*
X123068911Y-74930500D01*
X123068914Y-74930500D01*
X123209486Y-74930500D01*
X123209489Y-74930500D01*
X123345278Y-74894116D01*
X123390148Y-74868209D01*
X123440805Y-74859276D01*
X123480922Y-74880160D01*
X125148674Y-76547912D01*
X125170414Y-76594532D01*
X125170700Y-76601086D01*
X125170700Y-78008714D01*
X125153107Y-78057052D01*
X125148674Y-78061888D01*
X124645488Y-78565074D01*
X124598868Y-78586814D01*
X124592314Y-78587100D01*
X122494511Y-78587100D01*
X122446173Y-78569507D01*
X122429386Y-78549500D01*
X122423426Y-78539177D01*
X122324024Y-78439775D01*
X122202278Y-78369484D01*
X122184080Y-78364608D01*
X122066489Y-78333100D01*
X121925911Y-78333100D01*
X121790122Y-78369484D01*
X121790121Y-78369484D01*
X121668375Y-78439775D01*
X121668375Y-78439776D01*
X121568976Y-78539175D01*
X121568975Y-78539175D01*
X121498684Y-78660921D01*
X121498684Y-78660922D01*
X121462300Y-78796711D01*
X119833614Y-78796711D01*
X119832604Y-78794961D01*
X119832597Y-78794952D01*
X119020247Y-77982602D01*
X119020241Y-77982598D01*
X118927459Y-77929030D01*
X118892962Y-77919786D01*
X118823970Y-77901300D01*
X118823969Y-77901300D01*
X118823968Y-77901300D01*
X117763384Y-77901300D01*
X117725784Y-77891225D01*
X117630278Y-77836084D01*
X117621093Y-77833623D01*
X117494489Y-77799700D01*
X117353911Y-77799700D01*
X117218122Y-77836084D01*
X117218121Y-77836084D01*
X117096375Y-77906375D01*
X117096375Y-77906376D01*
X116996976Y-78005775D01*
X116996975Y-78005775D01*
X116926684Y-78127521D01*
X116926684Y-78127522D01*
X116890300Y-78263311D01*
X114010097Y-78263311D01*
X112682326Y-76935540D01*
X112660586Y-76888920D01*
X112660300Y-76882366D01*
X112660300Y-76249500D01*
X112677893Y-76201162D01*
X112722442Y-76175442D01*
X112735500Y-76174300D01*
X120870787Y-76174300D01*
X120919125Y-76191893D01*
X120923961Y-76196326D01*
X121955074Y-77227438D01*
X122035562Y-77307926D01*
X122134139Y-77364839D01*
X122244087Y-77394300D01*
X123786103Y-77394300D01*
X123834441Y-77411893D01*
X123839277Y-77416326D01*
X123928975Y-77506024D01*
X123928977Y-77506025D01*
X123928978Y-77506026D01*
X124050722Y-77576316D01*
X124186511Y-77612700D01*
X124186514Y-77612700D01*
X124327086Y-77612700D01*
X124327089Y-77612700D01*
X124462878Y-77576316D01*
X124584622Y-77506026D01*
X124584624Y-77506024D01*
X124584625Y-77506024D01*
X124684024Y-77406625D01*
X124684024Y-77406624D01*
X124684026Y-77406622D01*
X124754316Y-77284878D01*
X124790700Y-77149089D01*
X124790700Y-77008511D01*
X124754316Y-76872722D01*
X124684026Y-76750978D01*
X124684025Y-76750977D01*
X124684024Y-76750975D01*
X124584624Y-76651575D01*
X124462878Y-76581284D01*
X124327089Y-76544900D01*
X124186511Y-76544900D01*
X124181584Y-76544900D01*
X124181584Y-76544204D01*
X124159144Y-76542729D01*
X124110514Y-76529700D01*
X124110513Y-76529700D01*
X122511212Y-76529700D01*
X122462874Y-76512107D01*
X122458038Y-76507674D01*
X121346443Y-75396077D01*
X121346437Y-75396073D01*
X121247863Y-75339161D01*
X121211212Y-75329340D01*
X121137914Y-75309700D01*
X121137913Y-75309700D01*
X112396296Y-75309700D01*
X112347958Y-75292107D01*
X112343122Y-75287674D01*
X111772848Y-74717400D01*
X111773504Y-74717400D01*
X111876865Y-74689705D01*
X111969536Y-74636201D01*
X112045201Y-74560536D01*
X112098705Y-74467865D01*
X112126400Y-74364504D01*
X112126400Y-74363848D01*
X112699531Y-74936979D01*
X112712462Y-74919182D01*
X112795385Y-74756438D01*
X112851825Y-74582732D01*
X112851828Y-74582720D01*
X112880399Y-74402327D01*
X112880400Y-74402320D01*
X112880400Y-74219679D01*
X112880399Y-74219672D01*
X112851828Y-74039279D01*
X112851825Y-74039267D01*
X112795384Y-73865558D01*
X112747368Y-73771323D01*
X112747367Y-73771322D01*
X112732483Y-73742111D01*
X123926100Y-73742111D01*
X123926100Y-73882689D01*
X123961892Y-74016269D01*
X123962484Y-74018477D01*
X123962484Y-74018478D01*
X124032775Y-74140224D01*
X124132175Y-74239624D01*
X124132177Y-74239625D01*
X124132178Y-74239626D01*
X124253922Y-74309916D01*
X124389711Y-74346300D01*
X124465314Y-74346300D01*
X124513652Y-74363893D01*
X124518488Y-74368326D01*
X125881470Y-75731308D01*
X125903210Y-75777928D01*
X125903496Y-75784482D01*
X125903496Y-79588346D01*
X125903496Y-79662046D01*
X125911415Y-79691600D01*
X125922571Y-79733234D01*
X125959419Y-79797056D01*
X125959423Y-79797062D01*
X126370933Y-80208572D01*
X126370936Y-80208574D01*
X126370938Y-80208576D01*
X126434763Y-80245425D01*
X126505950Y-80264500D01*
X126505952Y-80264500D01*
X128459248Y-80264500D01*
X128459250Y-80264500D01*
X128530437Y-80245425D01*
X128594262Y-80208576D01*
X128594266Y-80208572D01*
X128617612Y-80185227D01*
X129738551Y-79064286D01*
X129969759Y-78833077D01*
X130016378Y-78811338D01*
X130042393Y-78813614D01*
X130053911Y-78816700D01*
X130194486Y-78816700D01*
X130194489Y-78816700D01*
X130330278Y-78780316D01*
X130452022Y-78710026D01*
X130452024Y-78710024D01*
X130452025Y-78710024D01*
X130551424Y-78610625D01*
X130551424Y-78610624D01*
X130551426Y-78610622D01*
X130621716Y-78488878D01*
X130658100Y-78353089D01*
X130658100Y-78212511D01*
X130621716Y-78076722D01*
X130551426Y-77954978D01*
X130551425Y-77954977D01*
X130551424Y-77954975D01*
X130452024Y-77855575D01*
X130330278Y-77785284D01*
X130194489Y-77748900D01*
X130053911Y-77748900D01*
X129918122Y-77785284D01*
X129918121Y-77785284D01*
X129796375Y-77855575D01*
X129796375Y-77855576D01*
X129696976Y-77954975D01*
X129696975Y-77954975D01*
X129626684Y-78076721D01*
X129626684Y-78076722D01*
X129590300Y-78212511D01*
X129590300Y-78212513D01*
X129590300Y-78353091D01*
X129593385Y-78364608D01*
X129588898Y-78415851D01*
X129573920Y-78437240D01*
X128328488Y-79682674D01*
X128281868Y-79704414D01*
X128275314Y-79704700D01*
X126689886Y-79704700D01*
X126641548Y-79687107D01*
X126636712Y-79682674D01*
X126485322Y-79531284D01*
X126463582Y-79484664D01*
X126463296Y-79478110D01*
X126463296Y-78923711D01*
X126618500Y-78923711D01*
X126618500Y-79064289D01*
X126654884Y-79200077D01*
X126654884Y-79200078D01*
X126725175Y-79321824D01*
X126824575Y-79421224D01*
X126824577Y-79421225D01*
X126824578Y-79421226D01*
X126946322Y-79491516D01*
X127082111Y-79527900D01*
X127082114Y-79527900D01*
X127222686Y-79527900D01*
X127222689Y-79527900D01*
X127358478Y-79491516D01*
X127480222Y-79421226D01*
X127480224Y-79421224D01*
X127480225Y-79421224D01*
X127579624Y-79321825D01*
X127579624Y-79321824D01*
X127579626Y-79321822D01*
X127649916Y-79200078D01*
X127686300Y-79064289D01*
X127686300Y-78923711D01*
X127649916Y-78787922D01*
X127579626Y-78666178D01*
X127579625Y-78666177D01*
X127579624Y-78666175D01*
X127480224Y-78566775D01*
X127393700Y-78516820D01*
X127360635Y-78477414D01*
X127356100Y-78451695D01*
X127356100Y-78288711D01*
X127761500Y-78288711D01*
X127761500Y-78429289D01*
X127790944Y-78539177D01*
X127797883Y-78565074D01*
X127797884Y-78565078D01*
X127868175Y-78686824D01*
X127967575Y-78786224D01*
X127967577Y-78786225D01*
X127967578Y-78786226D01*
X128089322Y-78856516D01*
X128225111Y-78892900D01*
X128225114Y-78892900D01*
X128365686Y-78892900D01*
X128365689Y-78892900D01*
X128501478Y-78856516D01*
X128623222Y-78786226D01*
X128623224Y-78786224D01*
X128623225Y-78786224D01*
X128722624Y-78686825D01*
X128722624Y-78686824D01*
X128722626Y-78686822D01*
X128792916Y-78565078D01*
X128829300Y-78429289D01*
X128829300Y-78288711D01*
X128792916Y-78152922D01*
X128722626Y-78031178D01*
X128722625Y-78031177D01*
X128722624Y-78031175D01*
X128623224Y-77931775D01*
X128501478Y-77861484D01*
X128501473Y-77861482D01*
X128453235Y-77848556D01*
X128411099Y-77819051D01*
X128397500Y-77775919D01*
X128397500Y-74797686D01*
X128415093Y-74749348D01*
X128419526Y-74744512D01*
X129992572Y-73171466D01*
X129992576Y-73171462D01*
X130029425Y-73107637D01*
X130048500Y-73036450D01*
X130048500Y-72962750D01*
X130048500Y-72507310D01*
X130066093Y-72458972D01*
X130086104Y-72442183D01*
X130096422Y-72436226D01*
X130195824Y-72336825D01*
X130195824Y-72336824D01*
X130195826Y-72336822D01*
X130266116Y-72215078D01*
X130302500Y-72079289D01*
X130302500Y-71938711D01*
X130682500Y-71938711D01*
X130682500Y-72079289D01*
X130718884Y-72215077D01*
X130718884Y-72215078D01*
X130789175Y-72336824D01*
X130888574Y-72436223D01*
X130888576Y-72436224D01*
X130888578Y-72436226D01*
X130898896Y-72442183D01*
X130921269Y-72455101D01*
X130953529Y-72493549D01*
X130953689Y-72493484D01*
X130953898Y-72493988D01*
X130954333Y-72494507D01*
X130955035Y-72496735D01*
X130955574Y-72498036D01*
X130992423Y-72561860D01*
X130992427Y-72561866D01*
X131552533Y-73121973D01*
X131552535Y-73121975D01*
X131552537Y-73121976D01*
X131589386Y-73143249D01*
X131616363Y-73158825D01*
X131687550Y-73177900D01*
X133101314Y-73177900D01*
X133149652Y-73195493D01*
X133154488Y-73199926D01*
X133771275Y-73816713D01*
X133793015Y-73863333D01*
X133793301Y-73869887D01*
X133793301Y-75011513D01*
X133775708Y-75059851D01*
X133771275Y-75064687D01*
X133302505Y-75533456D01*
X133255885Y-75555196D01*
X133229869Y-75552920D01*
X133198882Y-75544617D01*
X133178290Y-75539100D01*
X133037712Y-75539100D01*
X132901923Y-75575484D01*
X132901922Y-75575484D01*
X132780176Y-75645775D01*
X132780176Y-75645776D01*
X132680777Y-75745175D01*
X132680776Y-75745175D01*
X132610485Y-75866921D01*
X132610485Y-75866922D01*
X132574101Y-76002711D01*
X132574101Y-76143289D01*
X132610485Y-76279077D01*
X132610485Y-76279078D01*
X132680776Y-76400824D01*
X132780176Y-76500224D01*
X132780178Y-76500225D01*
X132780179Y-76500226D01*
X132901923Y-76570516D01*
X133037712Y-76606900D01*
X133037715Y-76606900D01*
X133178287Y-76606900D01*
X133178290Y-76606900D01*
X133314079Y-76570516D01*
X133435823Y-76500226D01*
X133435825Y-76500224D01*
X133435826Y-76500224D01*
X133535225Y-76400825D01*
X133535225Y-76400824D01*
X133535227Y-76400822D01*
X133605517Y-76279078D01*
X133641901Y-76143289D01*
X133641901Y-76016886D01*
X133659494Y-75968548D01*
X133663915Y-75963723D01*
X134309877Y-75317763D01*
X134346726Y-75253938D01*
X134350129Y-75241237D01*
X134365801Y-75182751D01*
X134365801Y-75109050D01*
X134355663Y-75071213D01*
X134353101Y-75051751D01*
X134353101Y-73673951D01*
X134350589Y-73664575D01*
X134334026Y-73602763D01*
X134297177Y-73538938D01*
X134297175Y-73538936D01*
X134297173Y-73538933D01*
X134245063Y-73486823D01*
X134225239Y-73475378D01*
X134209665Y-73463427D01*
X133420266Y-72674027D01*
X133420260Y-72674023D01*
X133356438Y-72637175D01*
X133332708Y-72630816D01*
X133285250Y-72618100D01*
X133285248Y-72618100D01*
X131871487Y-72618100D01*
X131823149Y-72600507D01*
X131818313Y-72596074D01*
X131653475Y-72431236D01*
X131631735Y-72384616D01*
X131641524Y-72340461D01*
X131643623Y-72336824D01*
X131643626Y-72336822D01*
X131713916Y-72215078D01*
X131750300Y-72079289D01*
X131750300Y-71938711D01*
X131713916Y-71802922D01*
X131643626Y-71681178D01*
X131643625Y-71681177D01*
X131643624Y-71681175D01*
X131544224Y-71581775D01*
X131422478Y-71511484D01*
X131286689Y-71475100D01*
X131146111Y-71475100D01*
X131010322Y-71511484D01*
X131010321Y-71511484D01*
X130888575Y-71581775D01*
X130888575Y-71581776D01*
X130789176Y-71681175D01*
X130789175Y-71681175D01*
X130718884Y-71802921D01*
X130718884Y-71802922D01*
X130682500Y-71938711D01*
X130302500Y-71938711D01*
X130266116Y-71802922D01*
X130195826Y-71681178D01*
X130195825Y-71681177D01*
X130195824Y-71681175D01*
X130096424Y-71581775D01*
X129974678Y-71511484D01*
X129838889Y-71475100D01*
X129698311Y-71475100D01*
X129562522Y-71511484D01*
X129562521Y-71511484D01*
X129440775Y-71581775D01*
X129440775Y-71581776D01*
X129341376Y-71681175D01*
X129341375Y-71681175D01*
X129271084Y-71802921D01*
X129271084Y-71802922D01*
X129234700Y-71938711D01*
X129234700Y-72079289D01*
X129271084Y-72215077D01*
X129271084Y-72215078D01*
X129341375Y-72336824D01*
X129440777Y-72436226D01*
X129451096Y-72442183D01*
X129484163Y-72481586D01*
X129488700Y-72507310D01*
X129488700Y-72852514D01*
X129471107Y-72900852D01*
X129466674Y-72905688D01*
X127945738Y-74426624D01*
X127919681Y-74452681D01*
X127893624Y-74478737D01*
X127893623Y-74478739D01*
X127856775Y-74542561D01*
X127837700Y-74613751D01*
X127837700Y-78063808D01*
X127827625Y-78101408D01*
X127797887Y-78152914D01*
X127797884Y-78152922D01*
X127761500Y-78288711D01*
X127356100Y-78288711D01*
X127356100Y-74899286D01*
X127373693Y-74850948D01*
X127378115Y-74846122D01*
X127427176Y-74797062D01*
X127464025Y-74733238D01*
X127483100Y-74662050D01*
X127483100Y-74588350D01*
X127483100Y-72532710D01*
X127500693Y-72484372D01*
X127520704Y-72467583D01*
X127531022Y-72461626D01*
X127630424Y-72362225D01*
X127630424Y-72362224D01*
X127630426Y-72362222D01*
X127700716Y-72240478D01*
X127737100Y-72104689D01*
X127737100Y-71964111D01*
X127700716Y-71828322D01*
X127630426Y-71706578D01*
X127630425Y-71706577D01*
X127630424Y-71706575D01*
X127531024Y-71607175D01*
X127409278Y-71536884D01*
X127273489Y-71500500D01*
X127132911Y-71500500D01*
X126997122Y-71536884D01*
X126997121Y-71536884D01*
X126875375Y-71607175D01*
X126875375Y-71607176D01*
X126775976Y-71706575D01*
X126775975Y-71706575D01*
X126705684Y-71828321D01*
X126705684Y-71828322D01*
X126669300Y-71964111D01*
X126669300Y-72104689D01*
X126705684Y-72240477D01*
X126705684Y-72240478D01*
X126775975Y-72362224D01*
X126875377Y-72461626D01*
X126885696Y-72467583D01*
X126918763Y-72506986D01*
X126923300Y-72532710D01*
X126923300Y-74478113D01*
X126905707Y-74526451D01*
X126901274Y-74531287D01*
X126852227Y-74580333D01*
X126852223Y-74580339D01*
X126815375Y-74644161D01*
X126796300Y-74715351D01*
X126796300Y-78563903D01*
X126778707Y-78612241D01*
X126774274Y-78617077D01*
X126725176Y-78666175D01*
X126725175Y-78666175D01*
X126654884Y-78787921D01*
X126654884Y-78787922D01*
X126618500Y-78923711D01*
X126463296Y-78923711D01*
X126463296Y-75600547D01*
X126446831Y-75539100D01*
X126444221Y-75529359D01*
X126407372Y-75465534D01*
X126355258Y-75413420D01*
X124988807Y-74046969D01*
X124967067Y-74000349D01*
X124969342Y-73974338D01*
X124993900Y-73882689D01*
X124993900Y-73742111D01*
X124957516Y-73606322D01*
X124887226Y-73484578D01*
X124887225Y-73484577D01*
X124887224Y-73484575D01*
X124787824Y-73385175D01*
X124666078Y-73314884D01*
X124530289Y-73278500D01*
X124389711Y-73278500D01*
X124253922Y-73314884D01*
X124253921Y-73314884D01*
X124132175Y-73385175D01*
X124132175Y-73385176D01*
X124032776Y-73484575D01*
X124032775Y-73484575D01*
X123962484Y-73606321D01*
X123962484Y-73606322D01*
X123926100Y-73742111D01*
X112732483Y-73742111D01*
X112712461Y-73702816D01*
X112699531Y-73685019D01*
X112126400Y-74258150D01*
X112126400Y-74257496D01*
X112098705Y-74154135D01*
X112045201Y-74061464D01*
X111969536Y-73985799D01*
X111876865Y-73932295D01*
X111773504Y-73904600D01*
X111772847Y-73904600D01*
X112345979Y-73331467D01*
X112328182Y-73318537D01*
X112165438Y-73235614D01*
X111991732Y-73179174D01*
X111991720Y-73179171D01*
X111811327Y-73150600D01*
X111628672Y-73150600D01*
X111448279Y-73179171D01*
X111448267Y-73179174D01*
X111274561Y-73235614D01*
X111111821Y-73318535D01*
X111111818Y-73318536D01*
X111094020Y-73331467D01*
X111094019Y-73331467D01*
X111667153Y-73904600D01*
X111666496Y-73904600D01*
X111563135Y-73932295D01*
X111470464Y-73985799D01*
X111394799Y-74061464D01*
X111341295Y-74154135D01*
X111313600Y-74257496D01*
X111313600Y-74258152D01*
X110740467Y-73685019D01*
X110740467Y-73685020D01*
X110727536Y-73702818D01*
X110727535Y-73702821D01*
X110644614Y-73865561D01*
X110588174Y-74039267D01*
X110588171Y-74039279D01*
X110559600Y-74219672D01*
X110559600Y-74402327D01*
X110588171Y-74582720D01*
X110588174Y-74582732D01*
X110644614Y-74756438D01*
X110727537Y-74919182D01*
X110740467Y-74936979D01*
X111313600Y-74363846D01*
X111313600Y-74364504D01*
X111341295Y-74467865D01*
X111394799Y-74560536D01*
X111470464Y-74636201D01*
X111563135Y-74689705D01*
X111666496Y-74717400D01*
X111667152Y-74717400D01*
X111093561Y-75290989D01*
X111087981Y-75311111D01*
X111084104Y-75333101D01*
X111081210Y-75335529D01*
X111080201Y-75339169D01*
X111061801Y-75351814D01*
X111044699Y-75366166D01*
X111039618Y-75367061D01*
X111037808Y-75368306D01*
X111018979Y-75370701D01*
X110945434Y-75370701D01*
X110897096Y-75353108D01*
X110892260Y-75348675D01*
X110258526Y-74714941D01*
X110236786Y-74668321D01*
X110236500Y-74661767D01*
X110236500Y-72810633D01*
X110254093Y-72762295D01*
X110258515Y-72757469D01*
X110585379Y-72430606D01*
X110688283Y-72276599D01*
X110712510Y-72218111D01*
X123011700Y-72218111D01*
X123011700Y-72358689D01*
X123040878Y-72467583D01*
X123048084Y-72494477D01*
X123048084Y-72494478D01*
X123118375Y-72616224D01*
X123217775Y-72715624D01*
X123217777Y-72715625D01*
X123217778Y-72715626D01*
X123339522Y-72785916D01*
X123475311Y-72822300D01*
X123475314Y-72822300D01*
X123615886Y-72822300D01*
X123615889Y-72822300D01*
X123751678Y-72785916D01*
X123873422Y-72715626D01*
X123873424Y-72715624D01*
X123873425Y-72715624D01*
X123972826Y-72616222D01*
X123978786Y-72605900D01*
X124018191Y-72572835D01*
X124043911Y-72568300D01*
X124516114Y-72568300D01*
X124564452Y-72585893D01*
X124569288Y-72590326D01*
X125624036Y-73645074D01*
X125645776Y-73691694D01*
X125635987Y-73735848D01*
X125600784Y-73796820D01*
X125600784Y-73796822D01*
X125564400Y-73932611D01*
X125564400Y-74073189D01*
X125590422Y-74170305D01*
X125600784Y-74208977D01*
X125600784Y-74208978D01*
X125671075Y-74330724D01*
X125770475Y-74430124D01*
X125770477Y-74430125D01*
X125770478Y-74430126D01*
X125892222Y-74500416D01*
X126028011Y-74536800D01*
X126028014Y-74536800D01*
X126168586Y-74536800D01*
X126168589Y-74536800D01*
X126304378Y-74500416D01*
X126426122Y-74430126D01*
X126426124Y-74430124D01*
X126426125Y-74430124D01*
X126525524Y-74330725D01*
X126525524Y-74330724D01*
X126525526Y-74330722D01*
X126595816Y-74208978D01*
X126632200Y-74073189D01*
X126632200Y-73932611D01*
X126595816Y-73796822D01*
X126525526Y-73675078D01*
X126525525Y-73675077D01*
X126525524Y-73675075D01*
X126426124Y-73575675D01*
X126304378Y-73505384D01*
X126304375Y-73505383D01*
X126285101Y-73500218D01*
X126251393Y-73480755D01*
X124835066Y-72064427D01*
X124835060Y-72064423D01*
X124771238Y-72027575D01*
X124747508Y-72021216D01*
X124700050Y-72008500D01*
X124700048Y-72008500D01*
X124043911Y-72008500D01*
X123995573Y-71990907D01*
X123978786Y-71970900D01*
X123972826Y-71960577D01*
X123873424Y-71861175D01*
X123751678Y-71790884D01*
X123750588Y-71790592D01*
X123615889Y-71754500D01*
X123475311Y-71754500D01*
X123339522Y-71790884D01*
X123339521Y-71790884D01*
X123217775Y-71861175D01*
X123217775Y-71861176D01*
X123118376Y-71960575D01*
X123118375Y-71960575D01*
X123048084Y-72082321D01*
X123048084Y-72082322D01*
X123011700Y-72218111D01*
X110712510Y-72218111D01*
X110759165Y-72105475D01*
X110795300Y-71923812D01*
X110795300Y-71738588D01*
X110795300Y-68814511D01*
X131444500Y-68814511D01*
X131444500Y-68955089D01*
X131460467Y-69014678D01*
X131480884Y-69090877D01*
X131480884Y-69090878D01*
X131551175Y-69212624D01*
X131650573Y-69312022D01*
X131650575Y-69312023D01*
X131650578Y-69312026D01*
X131731727Y-69358878D01*
X131772318Y-69382314D01*
X131772319Y-69382314D01*
X131772322Y-69382316D01*
X131791593Y-69387479D01*
X131825305Y-69406943D01*
X132057474Y-69639112D01*
X132079214Y-69685732D01*
X132079500Y-69692286D01*
X132079500Y-70625950D01*
X132079500Y-70699650D01*
X132092216Y-70747108D01*
X132098575Y-70770838D01*
X132135423Y-70834660D01*
X132135427Y-70834666D01*
X133635332Y-72334572D01*
X133635335Y-72334574D01*
X133635337Y-72334576D01*
X133699162Y-72371425D01*
X133712852Y-72375093D01*
X133770350Y-72390500D01*
X136352514Y-72390500D01*
X136400852Y-72408093D01*
X136405688Y-72412526D01*
X137010474Y-73017312D01*
X137032214Y-73063932D01*
X137032500Y-73070486D01*
X137032500Y-74126889D01*
X137014907Y-74175227D01*
X136994903Y-74192012D01*
X136984580Y-74197972D01*
X136885174Y-74297377D01*
X136814884Y-74419121D01*
X136814884Y-74419122D01*
X136778500Y-74554911D01*
X136778500Y-74695489D01*
X136814884Y-74831277D01*
X136814884Y-74831278D01*
X136885175Y-74953024D01*
X136984575Y-75052424D01*
X136984577Y-75052425D01*
X136984578Y-75052426D01*
X137106322Y-75122716D01*
X137242111Y-75159100D01*
X137242114Y-75159100D01*
X137382686Y-75159100D01*
X137382689Y-75159100D01*
X137518478Y-75122716D01*
X137640222Y-75052426D01*
X137640224Y-75052424D01*
X137640225Y-75052424D01*
X137739624Y-74953025D01*
X137739624Y-74953024D01*
X137739626Y-74953022D01*
X137809916Y-74831278D01*
X137846300Y-74695489D01*
X137846300Y-74554911D01*
X137809916Y-74419122D01*
X137739626Y-74297378D01*
X137640222Y-74197974D01*
X137640219Y-74197972D01*
X137629897Y-74192012D01*
X137596834Y-74152606D01*
X137592300Y-74126889D01*
X137592300Y-72886551D01*
X137591526Y-72883662D01*
X137573225Y-72815363D01*
X137536376Y-72751538D01*
X137484262Y-72699424D01*
X137082225Y-72297387D01*
X136671466Y-71886627D01*
X136671460Y-71886623D01*
X136607638Y-71849775D01*
X136583908Y-71843416D01*
X136536450Y-71830700D01*
X136536448Y-71830700D01*
X133954287Y-71830700D01*
X133905949Y-71813107D01*
X133901113Y-71808674D01*
X132661326Y-70568887D01*
X132639586Y-70522267D01*
X132639300Y-70515713D01*
X132639300Y-69508349D01*
X132622788Y-69446727D01*
X132622788Y-69446726D01*
X132620225Y-69437163D01*
X132620225Y-69437162D01*
X132583376Y-69373337D01*
X132452662Y-69242623D01*
X132430923Y-69196004D01*
X132440712Y-69151850D01*
X132475916Y-69090878D01*
X132512300Y-68955089D01*
X132512300Y-68814511D01*
X132491883Y-68738311D01*
X133273300Y-68738311D01*
X133273300Y-68878889D01*
X133309684Y-69014677D01*
X133309684Y-69014678D01*
X133379975Y-69136424D01*
X133479375Y-69235824D01*
X133479377Y-69235825D01*
X133479378Y-69235826D01*
X133601122Y-69306116D01*
X133736911Y-69342500D01*
X133736914Y-69342500D01*
X133877488Y-69342500D01*
X133877489Y-69342500D01*
X133889001Y-69339415D01*
X133940244Y-69343897D01*
X133961636Y-69358875D01*
X133985075Y-69382314D01*
X133990936Y-69388175D01*
X133990941Y-69388179D01*
X134036919Y-69414723D01*
X134054762Y-69425025D01*
X134069806Y-69429055D01*
X134125950Y-69444100D01*
X134955514Y-69444100D01*
X135003852Y-69461693D01*
X135008688Y-69466126D01*
X138153474Y-72610912D01*
X138175214Y-72657532D01*
X138175500Y-72664086D01*
X138175500Y-75163914D01*
X138157907Y-75212252D01*
X138153474Y-75217088D01*
X137748311Y-75622250D01*
X137701691Y-75643990D01*
X137652004Y-75630676D01*
X137642035Y-75621139D01*
X137641512Y-75621663D01*
X137538624Y-75518775D01*
X137416878Y-75448484D01*
X137281089Y-75412100D01*
X137140511Y-75412100D01*
X137004722Y-75448484D01*
X137004721Y-75448484D01*
X136882975Y-75518775D01*
X136882975Y-75518776D01*
X136783576Y-75618175D01*
X136783575Y-75618175D01*
X136713284Y-75739921D01*
X136713284Y-75739922D01*
X136676900Y-75875711D01*
X136676900Y-76016289D01*
X136710929Y-76143289D01*
X136713284Y-76152077D01*
X136713284Y-76152078D01*
X136783575Y-76273824D01*
X136882975Y-76373224D01*
X136882977Y-76373225D01*
X136882978Y-76373226D01*
X137004722Y-76443516D01*
X137140511Y-76479900D01*
X137140514Y-76479900D01*
X137281086Y-76479900D01*
X137281089Y-76479900D01*
X137416878Y-76443516D01*
X137538622Y-76373226D01*
X137538624Y-76373224D01*
X137538625Y-76373224D01*
X137638026Y-76273822D01*
X137643986Y-76263500D01*
X137683391Y-76230435D01*
X137709111Y-76225900D01*
X137857248Y-76225900D01*
X137857250Y-76225900D01*
X137928437Y-76206825D01*
X137992262Y-76169976D01*
X138679376Y-75482862D01*
X138716225Y-75419037D01*
X138735300Y-75347850D01*
X138735300Y-75274150D01*
X138735300Y-74021511D01*
X140588500Y-74021511D01*
X140588500Y-74162089D01*
X140614064Y-74257496D01*
X140624884Y-74297877D01*
X140624884Y-74297878D01*
X140695175Y-74419624D01*
X140794575Y-74519024D01*
X140794577Y-74519025D01*
X140794578Y-74519026D01*
X140916322Y-74589316D01*
X141052111Y-74625700D01*
X141052114Y-74625700D01*
X141192686Y-74625700D01*
X141192689Y-74625700D01*
X141328478Y-74589316D01*
X141450222Y-74519026D01*
X141450224Y-74519024D01*
X141450225Y-74519024D01*
X141549626Y-74419622D01*
X141555586Y-74409300D01*
X141594991Y-74376235D01*
X141620711Y-74371700D01*
X144789689Y-74371700D01*
X144838027Y-74389293D01*
X144854814Y-74409300D01*
X144860773Y-74419622D01*
X144960175Y-74519024D01*
X144960177Y-74519025D01*
X144960178Y-74519026D01*
X145081922Y-74589316D01*
X145217711Y-74625700D01*
X145217714Y-74625700D01*
X145358286Y-74625700D01*
X145358289Y-74625700D01*
X145494078Y-74589316D01*
X145615822Y-74519026D01*
X145615824Y-74519024D01*
X145615825Y-74519024D01*
X145715224Y-74419625D01*
X145715224Y-74419624D01*
X145715226Y-74419622D01*
X145785516Y-74297878D01*
X145821900Y-74162089D01*
X145821900Y-74021511D01*
X145785516Y-73885722D01*
X145715226Y-73763978D01*
X145715225Y-73763977D01*
X145715224Y-73763975D01*
X145615824Y-73664575D01*
X145494078Y-73594284D01*
X145358289Y-73557900D01*
X145217711Y-73557900D01*
X145081922Y-73594284D01*
X145081921Y-73594284D01*
X144960175Y-73664575D01*
X144960175Y-73664576D01*
X144860773Y-73763977D01*
X144854814Y-73774300D01*
X144815409Y-73807365D01*
X144789689Y-73811900D01*
X141620711Y-73811900D01*
X141572373Y-73794307D01*
X141555586Y-73774300D01*
X141549626Y-73763977D01*
X141450224Y-73664575D01*
X141328478Y-73594284D01*
X141192689Y-73557900D01*
X141052111Y-73557900D01*
X140916322Y-73594284D01*
X140916321Y-73594284D01*
X140794575Y-73664575D01*
X140794575Y-73664576D01*
X140695176Y-73763975D01*
X140695175Y-73763975D01*
X140624884Y-73885721D01*
X140624884Y-73885722D01*
X140588500Y-74021511D01*
X138735300Y-74021511D01*
X138735300Y-72480150D01*
X138723530Y-72436226D01*
X138716225Y-72408962D01*
X138702169Y-72384616D01*
X138679376Y-72345137D01*
X135274466Y-68940227D01*
X135274460Y-68940223D01*
X135210638Y-68903375D01*
X135186908Y-68897016D01*
X135139450Y-68884300D01*
X135139448Y-68884300D01*
X134416300Y-68884300D01*
X134367962Y-68866707D01*
X134342242Y-68822158D01*
X134341100Y-68809100D01*
X134341100Y-68738313D01*
X134341100Y-68738311D01*
X134304716Y-68602522D01*
X134234426Y-68480778D01*
X134234425Y-68480777D01*
X134234424Y-68480775D01*
X134135024Y-68381375D01*
X134013278Y-68311084D01*
X133877489Y-68274700D01*
X133736911Y-68274700D01*
X133601122Y-68311084D01*
X133601121Y-68311084D01*
X133479375Y-68381375D01*
X133479375Y-68381376D01*
X133379976Y-68480775D01*
X133379975Y-68480775D01*
X133309684Y-68602521D01*
X133309684Y-68602522D01*
X133273300Y-68738311D01*
X132491883Y-68738311D01*
X132475916Y-68678722D01*
X132405626Y-68556978D01*
X132405625Y-68556977D01*
X132405624Y-68556975D01*
X132306224Y-68457575D01*
X132184478Y-68387284D01*
X132048689Y-68350900D01*
X131908111Y-68350900D01*
X131772322Y-68387284D01*
X131772321Y-68387284D01*
X131650575Y-68457575D01*
X131650575Y-68457576D01*
X131551176Y-68556975D01*
X131551175Y-68556975D01*
X131480884Y-68678721D01*
X131480884Y-68678722D01*
X131444500Y-68814511D01*
X110795300Y-68814511D01*
X110795300Y-63895233D01*
X110812893Y-63846895D01*
X110817326Y-63842059D01*
X115843173Y-58816212D01*
X115843178Y-58816207D01*
X115946083Y-58662200D01*
X116016965Y-58491075D01*
X116053100Y-58309412D01*
X116053100Y-58124188D01*
X116053100Y-56800311D01*
X120471700Y-56800311D01*
X120471700Y-56940889D01*
X120499189Y-57043480D01*
X120508084Y-57076677D01*
X120508084Y-57076678D01*
X120578375Y-57198424D01*
X120677775Y-57297824D01*
X120677777Y-57297825D01*
X120677778Y-57297826D01*
X120799522Y-57368116D01*
X120935311Y-57404500D01*
X120935314Y-57404500D01*
X121075886Y-57404500D01*
X121075889Y-57404500D01*
X121211678Y-57368116D01*
X121333422Y-57297826D01*
X121333424Y-57297824D01*
X121333425Y-57297824D01*
X121432826Y-57198422D01*
X121438786Y-57188100D01*
X121478191Y-57155035D01*
X121503911Y-57150500D01*
X130129514Y-57150500D01*
X130177852Y-57168093D01*
X130182688Y-57172526D01*
X139194874Y-66184712D01*
X139216614Y-66231332D01*
X139216900Y-66237886D01*
X139216900Y-66262689D01*
X139253284Y-66398477D01*
X139253284Y-66398478D01*
X139323575Y-66520224D01*
X139422975Y-66619624D01*
X139422977Y-66619625D01*
X139422978Y-66619626D01*
X139544722Y-66689916D01*
X139680511Y-66726300D01*
X139680514Y-66726300D01*
X139821086Y-66726300D01*
X139821089Y-66726300D01*
X139956878Y-66689916D01*
X140078622Y-66619626D01*
X140078624Y-66619624D01*
X140078625Y-66619624D01*
X140178024Y-66520225D01*
X140178024Y-66520224D01*
X140178026Y-66520222D01*
X140248316Y-66398478D01*
X140284700Y-66262689D01*
X140284700Y-66122111D01*
X140248316Y-65986322D01*
X140178026Y-65864578D01*
X140178025Y-65864577D01*
X140178024Y-65864575D01*
X140078624Y-65765175D01*
X139956878Y-65694884D01*
X139936064Y-65689307D01*
X139821089Y-65658500D01*
X139680511Y-65658500D01*
X139548801Y-65693790D01*
X139497558Y-65689307D01*
X139476165Y-65674327D01*
X130448466Y-56646627D01*
X130448460Y-56646623D01*
X130384638Y-56609775D01*
X130360908Y-56603416D01*
X130313450Y-56590700D01*
X130313448Y-56590700D01*
X121503911Y-56590700D01*
X121455573Y-56573107D01*
X121438786Y-56553100D01*
X121432826Y-56542777D01*
X121333424Y-56443375D01*
X121211678Y-56373084D01*
X121075889Y-56336700D01*
X120935311Y-56336700D01*
X120799522Y-56373084D01*
X120799521Y-56373084D01*
X120677775Y-56443375D01*
X120677775Y-56443376D01*
X120578376Y-56542775D01*
X120578375Y-56542775D01*
X120508084Y-56664521D01*
X120508084Y-56664522D01*
X120471700Y-56800311D01*
X116053100Y-56800311D01*
X116053100Y-56503833D01*
X116070693Y-56455495D01*
X116075126Y-56450659D01*
X117359860Y-55165926D01*
X117406480Y-55144186D01*
X117413034Y-55143900D01*
X132395967Y-55143900D01*
X132444305Y-55161493D01*
X132449141Y-55165926D01*
X134092821Y-56809606D01*
X134223794Y-56940579D01*
X134223797Y-56940582D01*
X134376273Y-57042463D01*
X134377796Y-57043480D01*
X134377795Y-57043480D01*
X134377798Y-57043481D01*
X134377801Y-57043483D01*
X134548925Y-57114365D01*
X134685172Y-57141466D01*
X134730587Y-57150500D01*
X134730588Y-57150500D01*
X134730589Y-57150500D01*
X137490700Y-57150500D01*
X137539038Y-57168093D01*
X137564758Y-57212642D01*
X137565900Y-57225700D01*
X137565900Y-58101543D01*
X137602035Y-58283209D01*
X137602036Y-58283210D01*
X137672916Y-58454329D01*
X137672917Y-58454331D01*
X137775821Y-58608338D01*
X137775823Y-58608340D01*
X137775825Y-58608343D01*
X137906788Y-58739306D01*
X137906791Y-58739308D01*
X137906794Y-58739311D01*
X138060801Y-58842215D01*
X138231921Y-58913095D01*
X138231922Y-58913096D01*
X138231923Y-58913096D01*
X138231925Y-58913097D01*
X138353580Y-58937295D01*
X138413588Y-58949232D01*
X138413589Y-58949232D01*
X138598812Y-58949232D01*
X138643919Y-58940259D01*
X138780475Y-58913097D01*
X138951599Y-58842215D01*
X139105606Y-58739311D01*
X139236579Y-58608338D01*
X139339483Y-58454331D01*
X139410365Y-58283207D01*
X139446500Y-58101543D01*
X139446500Y-56117589D01*
X139410365Y-55935925D01*
X139339483Y-55764801D01*
X139236579Y-55610794D01*
X139236576Y-55610791D01*
X139236574Y-55610788D01*
X139105611Y-55479825D01*
X139105608Y-55479823D01*
X139105606Y-55479821D01*
X138951599Y-55376917D01*
X138951597Y-55376916D01*
X138780478Y-55306036D01*
X138780477Y-55306035D01*
X138598812Y-55269900D01*
X138598811Y-55269900D01*
X135243833Y-55269900D01*
X135195495Y-55252307D01*
X135190659Y-55247874D01*
X133416012Y-53473226D01*
X133416009Y-53473224D01*
X133416007Y-53473222D01*
X133261999Y-53370317D01*
X133090875Y-53299435D01*
X133090872Y-53299434D01*
X133090871Y-53299434D01*
X132909213Y-53263300D01*
X132909212Y-53263300D01*
X132909211Y-53263300D01*
X117085012Y-53263300D01*
X116899788Y-53263300D01*
X116899787Y-53263300D01*
X116718128Y-53299434D01*
X116718125Y-53299435D01*
X116547002Y-53370316D01*
X116392987Y-53473225D01*
X116392986Y-53473226D01*
X114382426Y-55483787D01*
X114382424Y-55483790D01*
X114279516Y-55637802D01*
X114208635Y-55808925D01*
X114208634Y-55808928D01*
X114172500Y-55990587D01*
X114172500Y-56175814D01*
X114184000Y-56233630D01*
X114184000Y-56262970D01*
X114172500Y-56320786D01*
X114172500Y-57796167D01*
X114154907Y-57844505D01*
X114150474Y-57849341D01*
X109255594Y-62744221D01*
X109190108Y-62809707D01*
X109124622Y-62875192D01*
X109021716Y-63029202D01*
X108950836Y-63200321D01*
X108950835Y-63200322D01*
X108914700Y-63381988D01*
X108914700Y-71410567D01*
X108897107Y-71458905D01*
X108892674Y-71463741D01*
X108696794Y-71659621D01*
X108649840Y-71706575D01*
X108565822Y-71790592D01*
X108565820Y-71790595D01*
X108512721Y-71870062D01*
X108512722Y-71870063D01*
X108462916Y-71944602D01*
X108392036Y-72115721D01*
X108392035Y-72115722D01*
X108372273Y-72215078D01*
X108355900Y-72297387D01*
X105278700Y-72297387D01*
X105278700Y-58329500D01*
X105280800Y-58301116D01*
X105278700Y-58290075D01*
X105278700Y-58278838D01*
X105272046Y-58254007D01*
X105270814Y-58248621D01*
X105266015Y-58223389D01*
X105266015Y-58223387D01*
X105265796Y-58222933D01*
X105264210Y-58219647D01*
X105259295Y-58206420D01*
X105258221Y-58202412D01*
X105258218Y-58202405D01*
X105245378Y-58180167D01*
X105243564Y-58176834D01*
X105243169Y-58176062D01*
X105231617Y-58152132D01*
X105229896Y-58150135D01*
X105226593Y-58143684D01*
X105223880Y-58121933D01*
X105218849Y-58100604D01*
X105220734Y-58096715D01*
X105220226Y-58092639D01*
X105230152Y-58077289D01*
X105240355Y-58056244D01*
X111726444Y-51570155D01*
X111773061Y-51548417D01*
X111817706Y-51559661D01*
G37*
G04 #@! TD.AperFunction*
G04 #@! TD*
M02*
