G04 #@! TF.GenerationSoftware,KiCad,Pcbnew,9.0.0*
G04 #@! TF.CreationDate,2025-04-10T22:34:47-07:00*
G04 #@! TF.ProjectId,HOPE_ESP32_Drone,484f5045-5f45-4535-9033-325f44726f6e,rev?*
G04 #@! TF.SameCoordinates,Original*
G04 #@! TF.FileFunction,Soldermask,Top*
G04 #@! TF.FilePolarity,Negative*
%FSLAX46Y46*%
G04 Gerber Fmt 4.6, Leading zero omitted, Abs format (unit mm)*
G04 Created by KiCad (PCBNEW 9.0.0) date 2025-04-10 22:34:47*
%MOMM*%
%LPD*%
G01*
G04 APERTURE LIST*
G04 Aperture macros list*
%AMRoundRect*
0 Rectangle with rounded corners*
0 $1 Rounding radius*
0 $2 $3 $4 $5 $6 $7 $8 $9 X,Y pos of 4 corners*
0 Add a 4 corners polygon primitive as box body*
4,1,4,$2,$3,$4,$5,$6,$7,$8,$9,$2,$3,0*
0 Add four circle primitives for the rounded corners*
1,1,$1+$1,$2,$3*
1,1,$1+$1,$4,$5*
1,1,$1+$1,$6,$7*
1,1,$1+$1,$8,$9*
0 Add four rect primitives between the rounded corners*
20,1,$1+$1,$2,$3,$4,$5,0*
20,1,$1+$1,$4,$5,$6,$7,0*
20,1,$1+$1,$6,$7,$8,$9,0*
20,1,$1+$1,$8,$9,$2,$3,0*%
%AMRotRect*
0 Rectangle, with rotation*
0 The origin of the aperture is its center*
0 $1 length*
0 $2 width*
0 $3 Rotation angle, in degrees counterclockwise*
0 Add horizontal line*
21,1,$1,$2,0,0,$3*%
G04 Aperture macros list end*
%ADD10C,0.010000*%
%ADD11RoundRect,0.218750X0.218750X0.256250X-0.218750X0.256250X-0.218750X-0.256250X0.218750X-0.256250X0*%
%ADD12RoundRect,0.100000X0.100000X-0.130000X0.100000X0.130000X-0.100000X0.130000X-0.100000X-0.130000X0*%
%ADD13C,1.320800*%
%ADD14RoundRect,0.100000X-0.100000X0.130000X-0.100000X-0.130000X0.100000X-0.130000X0.100000X0.130000X0*%
%ADD15RoundRect,0.150000X0.388909X-0.601041X0.601041X-0.388909X-0.388909X0.601041X-0.601041X0.388909X0*%
%ADD16RoundRect,0.250000X0.636396X-0.989949X0.989949X-0.636396X-0.636396X0.989949X-0.989949X0.636396X0*%
%ADD17R,0.660400X0.203200*%
%ADD18R,0.990600X1.600200*%
%ADD19RoundRect,0.100000X0.130000X0.100000X-0.130000X0.100000X-0.130000X-0.100000X0.130000X-0.100000X0*%
%ADD20RotRect,0.812800X1.041400X45.000000*%
%ADD21RoundRect,0.150000X-0.601041X-0.388909X-0.388909X-0.601041X0.601041X0.388909X0.388909X0.601041X0*%
%ADD22RoundRect,0.250000X-0.989949X-0.636396X-0.636396X-0.989949X0.989949X0.636396X0.636396X0.989949X0*%
%ADD23C,2.000000*%
%ADD24RotRect,0.812800X1.041400X225.000000*%
%ADD25RoundRect,0.100000X-0.130000X-0.100000X0.130000X-0.100000X0.130000X0.100000X-0.130000X0.100000X0*%
%ADD26R,1.000000X0.800000*%
%ADD27RoundRect,0.150000X0.601041X0.388909X0.388909X0.601041X-0.601041X-0.388909X-0.388909X-0.601041X0*%
%ADD28RoundRect,0.250000X0.989949X0.636396X0.636396X0.989949X-0.989949X-0.636396X-0.636396X-0.989949X0*%
%ADD29RotRect,0.558800X1.320800X315.000000*%
%ADD30R,0.558800X1.320800*%
%ADD31R,0.950000X0.300000*%
%ADD32R,0.910000X1.220000*%
%ADD33R,0.279400X0.254000*%
%ADD34R,0.254000X0.279400*%
%ADD35RoundRect,0.150000X-0.388909X0.601041X-0.601041X0.388909X0.388909X-0.601041X0.601041X-0.388909X0*%
%ADD36RoundRect,0.250000X-0.636396X0.989949X-0.989949X0.636396X0.636396X-0.989949X0.989949X-0.636396X0*%
%ADD37RoundRect,0.102000X-0.525000X-0.325000X0.525000X-0.325000X0.525000X0.325000X-0.525000X0.325000X0*%
%ADD38C,0.650000*%
%ADD39O,1.204000X2.304000*%
%ADD40O,1.204000X2.004000*%
%ADD41RoundRect,0.100000X0.021213X0.162635X-0.162635X-0.021213X-0.021213X-0.162635X0.162635X0.021213X0*%
%ADD42RoundRect,0.093750X0.093750X-0.156250X0.093750X0.156250X-0.093750X0.156250X-0.093750X-0.156250X0*%
%ADD43RoundRect,0.075000X0.075000X-0.250000X0.075000X0.250000X-0.075000X0.250000X-0.075000X-0.250000X0*%
%ADD44RotRect,0.812800X1.041400X135.000000*%
%ADD45RotRect,0.812800X1.041400X315.000000*%
%ADD46R,1.500000X0.900000*%
%ADD47R,0.900000X1.500000*%
%ADD48R,3.900000X3.900000*%
%ADD49R,1.200000X2.200000*%
G04 APERTURE END LIST*
D10*
G04 #@! TO.C,MT1*
X126707100Y-75875000D02*
X126132100Y-75875000D01*
X126132100Y-75525000D01*
X126707100Y-75525000D01*
X126707100Y-75875000D01*
G36*
X126707100Y-75875000D02*
G01*
X126132100Y-75875000D01*
X126132100Y-75525000D01*
X126707100Y-75525000D01*
X126707100Y-75875000D01*
G37*
X126707100Y-76375000D02*
X126132100Y-76375000D01*
X126132100Y-76025000D01*
X126707100Y-76025000D01*
X126707100Y-76375000D01*
G36*
X126707100Y-76375000D02*
G01*
X126132100Y-76375000D01*
X126132100Y-76025000D01*
X126707100Y-76025000D01*
X126707100Y-76375000D01*
G37*
X126707100Y-76875000D02*
X126132100Y-76875000D01*
X126132100Y-76525000D01*
X126707100Y-76525000D01*
X126707100Y-76875000D01*
G36*
X126707100Y-76875000D02*
G01*
X126132100Y-76875000D01*
X126132100Y-76525000D01*
X126707100Y-76525000D01*
X126707100Y-76875000D01*
G37*
X126757100Y-75325000D02*
X126407100Y-75325000D01*
X126407100Y-74750000D01*
X126757100Y-74750000D01*
X126757100Y-75325000D01*
G36*
X126757100Y-75325000D02*
G01*
X126407100Y-75325000D01*
X126407100Y-74750000D01*
X126757100Y-74750000D01*
X126757100Y-75325000D01*
G37*
X126757100Y-77650000D02*
X126407100Y-77650000D01*
X126407100Y-77075000D01*
X126757100Y-77075000D01*
X126757100Y-77650000D01*
G36*
X126757100Y-77650000D02*
G01*
X126407100Y-77650000D01*
X126407100Y-77075000D01*
X126757100Y-77075000D01*
X126757100Y-77650000D01*
G37*
X127257100Y-75325000D02*
X126907100Y-75325000D01*
X126907100Y-74750000D01*
X127257100Y-74750000D01*
X127257100Y-75325000D01*
G36*
X127257100Y-75325000D02*
G01*
X126907100Y-75325000D01*
X126907100Y-74750000D01*
X127257100Y-74750000D01*
X127257100Y-75325000D01*
G37*
X127257100Y-77650000D02*
X126907100Y-77650000D01*
X126907100Y-77075000D01*
X127257100Y-77075000D01*
X127257100Y-77650000D01*
G36*
X127257100Y-77650000D02*
G01*
X126907100Y-77650000D01*
X126907100Y-77075000D01*
X127257100Y-77075000D01*
X127257100Y-77650000D01*
G37*
X127757100Y-75325000D02*
X127407100Y-75325000D01*
X127407100Y-74750000D01*
X127757100Y-74750000D01*
X127757100Y-75325000D01*
G36*
X127757100Y-75325000D02*
G01*
X127407100Y-75325000D01*
X127407100Y-74750000D01*
X127757100Y-74750000D01*
X127757100Y-75325000D01*
G37*
X127757100Y-77650000D02*
X127407100Y-77650000D01*
X127407100Y-77075000D01*
X127757100Y-77075000D01*
X127757100Y-77650000D01*
G36*
X127757100Y-77650000D02*
G01*
X127407100Y-77650000D01*
X127407100Y-77075000D01*
X127757100Y-77075000D01*
X127757100Y-77650000D01*
G37*
X128257100Y-75325000D02*
X127907100Y-75325000D01*
X127907100Y-74750000D01*
X128257100Y-74750000D01*
X128257100Y-75325000D01*
G36*
X128257100Y-75325000D02*
G01*
X127907100Y-75325000D01*
X127907100Y-74750000D01*
X128257100Y-74750000D01*
X128257100Y-75325000D01*
G37*
X128257100Y-77650000D02*
X127907100Y-77650000D01*
X127907100Y-77075000D01*
X128257100Y-77075000D01*
X128257100Y-77650000D01*
G36*
X128257100Y-77650000D02*
G01*
X127907100Y-77650000D01*
X127907100Y-77075000D01*
X128257100Y-77075000D01*
X128257100Y-77650000D01*
G37*
X128532100Y-75875000D02*
X127957100Y-75875000D01*
X127957100Y-75525000D01*
X128532100Y-75525000D01*
X128532100Y-75875000D01*
G36*
X128532100Y-75875000D02*
G01*
X127957100Y-75875000D01*
X127957100Y-75525000D01*
X128532100Y-75525000D01*
X128532100Y-75875000D01*
G37*
X128532100Y-76375000D02*
X127957100Y-76375000D01*
X127957100Y-76025000D01*
X128532100Y-76025000D01*
X128532100Y-76375000D01*
G36*
X128532100Y-76375000D02*
G01*
X127957100Y-76375000D01*
X127957100Y-76025000D01*
X128532100Y-76025000D01*
X128532100Y-76375000D01*
G37*
X128532100Y-76875000D02*
X127957100Y-76875000D01*
X127957100Y-76525000D01*
X128532100Y-76525000D01*
X128532100Y-76875000D01*
G36*
X128532100Y-76875000D02*
G01*
X127957100Y-76875000D01*
X127957100Y-76525000D01*
X128532100Y-76525000D01*
X128532100Y-76875000D01*
G37*
G04 #@! TO.C,J7*
X119425600Y-87564000D02*
X118725600Y-87564000D01*
X118725600Y-86314000D01*
X119425600Y-86314000D01*
X119425600Y-87564000D01*
G36*
X119425600Y-87564000D02*
G01*
X118725600Y-87564000D01*
X118725600Y-86314000D01*
X119425600Y-86314000D01*
X119425600Y-87564000D01*
G37*
X120225600Y-87564000D02*
X119525600Y-87564000D01*
X119525600Y-86314000D01*
X120225600Y-86314000D01*
X120225600Y-87564000D01*
G36*
X120225600Y-87564000D02*
G01*
X119525600Y-87564000D01*
X119525600Y-86314000D01*
X120225600Y-86314000D01*
X120225600Y-87564000D01*
G37*
X120725600Y-87564000D02*
X120325600Y-87564000D01*
X120325600Y-86314000D01*
X120725600Y-86314000D01*
X120725600Y-87564000D01*
G36*
X120725600Y-87564000D02*
G01*
X120325600Y-87564000D01*
X120325600Y-86314000D01*
X120725600Y-86314000D01*
X120725600Y-87564000D01*
G37*
X121225600Y-87564000D02*
X120825600Y-87564000D01*
X120825600Y-86314000D01*
X121225600Y-86314000D01*
X121225600Y-87564000D01*
G36*
X121225600Y-87564000D02*
G01*
X120825600Y-87564000D01*
X120825600Y-86314000D01*
X121225600Y-86314000D01*
X121225600Y-87564000D01*
G37*
X121725600Y-87564000D02*
X121325600Y-87564000D01*
X121325600Y-86314000D01*
X121725600Y-86314000D01*
X121725600Y-87564000D01*
G36*
X121725600Y-87564000D02*
G01*
X121325600Y-87564000D01*
X121325600Y-86314000D01*
X121725600Y-86314000D01*
X121725600Y-87564000D01*
G37*
X122225600Y-87564000D02*
X121825600Y-87564000D01*
X121825600Y-86314000D01*
X122225600Y-86314000D01*
X122225600Y-87564000D01*
G36*
X122225600Y-87564000D02*
G01*
X121825600Y-87564000D01*
X121825600Y-86314000D01*
X122225600Y-86314000D01*
X122225600Y-87564000D01*
G37*
X122725600Y-87564000D02*
X122325600Y-87564000D01*
X122325600Y-86314000D01*
X122725600Y-86314000D01*
X122725600Y-87564000D01*
G36*
X122725600Y-87564000D02*
G01*
X122325600Y-87564000D01*
X122325600Y-86314000D01*
X122725600Y-86314000D01*
X122725600Y-87564000D01*
G37*
X123225600Y-87564000D02*
X122825600Y-87564000D01*
X122825600Y-86314000D01*
X123225600Y-86314000D01*
X123225600Y-87564000D01*
G36*
X123225600Y-87564000D02*
G01*
X122825600Y-87564000D01*
X122825600Y-86314000D01*
X123225600Y-86314000D01*
X123225600Y-87564000D01*
G37*
X123725600Y-87564000D02*
X123325600Y-87564000D01*
X123325600Y-86314000D01*
X123725600Y-86314000D01*
X123725600Y-87564000D01*
G36*
X123725600Y-87564000D02*
G01*
X123325600Y-87564000D01*
X123325600Y-86314000D01*
X123725600Y-86314000D01*
X123725600Y-87564000D01*
G37*
X124225600Y-87564000D02*
X123825600Y-87564000D01*
X123825600Y-86314000D01*
X124225600Y-86314000D01*
X124225600Y-87564000D01*
G36*
X124225600Y-87564000D02*
G01*
X123825600Y-87564000D01*
X123825600Y-86314000D01*
X124225600Y-86314000D01*
X124225600Y-87564000D01*
G37*
X125025600Y-87564000D02*
X124325600Y-87564000D01*
X124325600Y-86314000D01*
X125025600Y-86314000D01*
X125025600Y-87564000D01*
G36*
X125025600Y-87564000D02*
G01*
X124325600Y-87564000D01*
X124325600Y-86314000D01*
X125025600Y-86314000D01*
X125025600Y-87564000D01*
G37*
X125825600Y-87564000D02*
X125125600Y-87564000D01*
X125125600Y-86314000D01*
X125825600Y-86314000D01*
X125825600Y-87564000D01*
G36*
X125825600Y-87564000D02*
G01*
X125125600Y-87564000D01*
X125125600Y-86314000D01*
X125825600Y-86314000D01*
X125825600Y-87564000D01*
G37*
G04 #@! TD*
D11*
G04 #@! TO.C,D8*
X127127100Y-83032600D03*
X125552100Y-83032600D03*
G04 #@! TD*
D12*
G04 #@! TO.C,R5*
X125514400Y-84978300D03*
X125514400Y-84338300D03*
G04 #@! TD*
D13*
G04 #@! TO.C,VBAT*
X111720000Y-74311000D03*
X111720000Y-76311001D03*
G04 #@! TD*
D14*
G04 #@! TO.C,R13*
X113106200Y-68641000D03*
X113106200Y-69281000D03*
G04 #@! TD*
D15*
G04 #@! TO.C,MOTOR1*
X110760004Y-57948288D03*
X111643888Y-57064404D03*
D16*
X107083049Y-56887628D03*
X110583228Y-53387449D03*
G04 #@! TD*
D14*
G04 #@! TO.C,C21*
X129508200Y-80716600D03*
X129508200Y-81356600D03*
G04 #@! TD*
D17*
G04 #@! TO.C,U4*
X121885075Y-77711300D03*
X121885075Y-77311250D03*
X121885075Y-76911200D03*
X121885075Y-76511150D03*
X121885075Y-76111100D03*
X119624475Y-76111100D03*
X119624475Y-76511150D03*
X119624475Y-76911200D03*
X119624475Y-77311250D03*
X119624475Y-77711300D03*
D18*
X120754775Y-76911200D03*
G04 #@! TD*
D12*
G04 #@! TO.C,R4*
X138734800Y-53700200D03*
X138734800Y-53060200D03*
G04 #@! TD*
D19*
G04 #@! TO.C,R11*
X142549800Y-65913000D03*
X141909800Y-65913000D03*
G04 #@! TD*
D20*
G04 #@! TO.C,CR3*
X139396167Y-86511433D03*
X141731033Y-84176567D03*
G04 #@! TD*
D19*
G04 #@! TO.C,R10*
X110403600Y-79603600D03*
X109763600Y-79603600D03*
G04 #@! TD*
D14*
G04 #@! TO.C,C22*
X128619200Y-80716600D03*
X128619200Y-81356600D03*
G04 #@! TD*
D21*
G04 #@! TO.C,MOTOR3*
X141489161Y-57072776D03*
X142373045Y-57956660D03*
D22*
X142549821Y-53395821D03*
X146050000Y-56896000D03*
G04 #@! TD*
D23*
G04 #@! TO.C,3.3V*
X135940800Y-91389200D03*
G04 #@! TD*
D24*
G04 #@! TO.C,CR1*
X113918033Y-59284567D03*
X111583167Y-61619433D03*
G04 #@! TD*
D25*
G04 #@! TO.C,R21*
X132979200Y-79603600D03*
X133619200Y-79603600D03*
G04 #@! TD*
D12*
G04 #@! TO.C,C23*
X133748600Y-81534000D03*
X133748600Y-80894000D03*
G04 #@! TD*
G04 #@! TO.C,C24*
X129336800Y-77053400D03*
X129336800Y-76413400D03*
G04 #@! TD*
D25*
G04 #@! TO.C,R19*
X133055400Y-82778600D03*
X133695400Y-82778600D03*
G04 #@! TD*
D26*
G04 #@! TO.C,D1*
X111593000Y-70716600D03*
X111593000Y-69316600D03*
X109093000Y-69316600D03*
X109093000Y-70716600D03*
G04 #@! TD*
D27*
G04 #@! TO.C,MOTOR2*
X111618488Y-88731597D03*
X110734604Y-87847713D03*
D28*
X110557828Y-92408552D03*
X107057649Y-88908373D03*
G04 #@! TD*
D19*
G04 #@! TO.C,R20*
X133621600Y-78689200D03*
X132981600Y-78689200D03*
G04 #@! TD*
D12*
G04 #@! TO.C,R23*
X118369275Y-74222900D03*
X118369275Y-73582900D03*
G04 #@! TD*
D19*
G04 #@! TO.C,R8*
X112029200Y-67691000D03*
X111389200Y-67691000D03*
G04 #@! TD*
D12*
G04 #@! TO.C,C28*
X123266200Y-77078800D03*
X123266200Y-76438800D03*
G04 #@! TD*
D29*
G04 #@! TO.C,MOSFET1*
X107578550Y-63015991D03*
X108916609Y-64354050D03*
X109684420Y-62248180D03*
G04 #@! TD*
D14*
G04 #@! TO.C,R3*
X139674600Y-53045400D03*
X139674600Y-53685400D03*
G04 #@! TD*
D30*
G04 #@! TO.C,MOSFET2*
X110470950Y-81280000D03*
X108578650Y-81280000D03*
X109524800Y-83312000D03*
G04 #@! TD*
D31*
G04 #@! TO.C,IC2*
X130954600Y-80661000D03*
X130954600Y-81161000D03*
X130954600Y-81661000D03*
X132454600Y-81661000D03*
X132454600Y-81161000D03*
X132454600Y-80661000D03*
G04 #@! TD*
D32*
G04 #@! TO.C,D3*
X119465600Y-83921600D03*
X116195600Y-83921600D03*
G04 #@! TD*
D14*
G04 #@! TO.C,C25*
X129336800Y-74804000D03*
X129336800Y-75444000D03*
G04 #@! TD*
G04 #@! TO.C,R1*
X107442000Y-68651200D03*
X107442000Y-69291200D03*
G04 #@! TD*
D33*
G04 #@! TO.C,U7*
X134293800Y-75061000D03*
X134293800Y-75561000D03*
D34*
X134581201Y-76098400D03*
X135081200Y-76098400D03*
X135581199Y-76098400D03*
D33*
X135868600Y-75561000D03*
X135868600Y-75061000D03*
D34*
X135581199Y-74523600D03*
X135081200Y-74523600D03*
X134581201Y-74523600D03*
G04 #@! TD*
D35*
G04 #@! TO.C,MOTOR4*
X142376397Y-87847713D03*
X141492513Y-88731597D03*
D36*
X146053352Y-88908373D03*
X142553173Y-92408552D03*
G04 #@! TD*
D37*
G04 #@! TO.C,EN*
X141122400Y-69071600D03*
X145272400Y-69071600D03*
X141122400Y-71221600D03*
X145272400Y-71221600D03*
G04 #@! TD*
D25*
G04 #@! TO.C,R12*
X143799600Y-79121000D03*
X144439600Y-79121000D03*
G04 #@! TD*
D14*
G04 #@! TO.C,C26*
X130225800Y-74813200D03*
X130225800Y-75453200D03*
G04 #@! TD*
D12*
G04 #@! TO.C,C31*
X133108001Y-75021400D03*
X133108001Y-74381400D03*
G04 #@! TD*
G04 #@! TO.C,R27*
X124155200Y-83352600D03*
X124155200Y-82712600D03*
G04 #@! TD*
D25*
G04 #@! TO.C,R7*
X120364925Y-78867000D03*
X121004925Y-78867000D03*
G04 #@! TD*
G04 #@! TO.C,C32*
X134757200Y-73482200D03*
X135397200Y-73482200D03*
G04 #@! TD*
D12*
G04 #@! TO.C,R6*
X117424200Y-77434400D03*
X117424200Y-76794400D03*
G04 #@! TD*
G04 #@! TO.C,C27*
X134637600Y-81534000D03*
X134637600Y-80894000D03*
G04 #@! TD*
D19*
G04 #@! TO.C,R2*
X140385800Y-67564000D03*
X139745800Y-67564000D03*
G04 #@! TD*
D14*
G04 #@! TO.C,C4*
X139743000Y-69344000D03*
X139743000Y-69984000D03*
G04 #@! TD*
D12*
G04 #@! TO.C,C6*
X115900200Y-54076600D03*
X115900200Y-53436600D03*
G04 #@! TD*
D23*
G04 #@! TO.C,TP3*
X138049000Y-81432400D03*
G04 #@! TD*
D38*
G04 #@! TO.C,J7*
X119385600Y-88014000D03*
X125165600Y-88014000D03*
D39*
X117955600Y-87514000D03*
X126595600Y-87514000D03*
D40*
X117955600Y-91694000D03*
X126595600Y-91694000D03*
G04 #@! TD*
D41*
G04 #@! TO.C,R9*
X110995674Y-64619926D03*
X110543126Y-65072474D03*
G04 #@! TD*
D37*
G04 #@! TO.C,BOOT*
X141103352Y-75150400D03*
X145253352Y-75150400D03*
X141103352Y-77300400D03*
X145253352Y-77300400D03*
G04 #@! TD*
D14*
G04 #@! TO.C,C30*
X118465600Y-77937400D03*
X118465600Y-78577400D03*
G04 #@! TD*
D12*
G04 #@! TO.C,R22*
X121894600Y-74223800D03*
X121894600Y-73583800D03*
G04 #@! TD*
D42*
G04 #@! TO.C,U2*
X121738100Y-84746200D03*
D43*
X122275600Y-84821200D03*
D42*
X122813100Y-84746200D03*
X122813100Y-83046200D03*
D43*
X122275600Y-82971200D03*
D42*
X121738100Y-83046200D03*
G04 #@! TD*
D30*
G04 #@! TO.C,MOSFET3*
X142589250Y-64439800D03*
X144481550Y-64439800D03*
X143535400Y-62407800D03*
G04 #@! TD*
D44*
G04 #@! TO.C,CR2*
X113638633Y-86714633D03*
X111303767Y-84379767D03*
G04 #@! TD*
D45*
G04 #@! TO.C,CR4*
X139396167Y-59030567D03*
X141731033Y-61365433D03*
G04 #@! TD*
D14*
G04 #@! TO.C,C29*
X123240800Y-78115200D03*
X123240800Y-78755200D03*
G04 #@! TD*
D46*
G04 #@! TO.C,U1*
X117836000Y-52788000D03*
X117836000Y-54058000D03*
X117836000Y-55328000D03*
X117836000Y-56598000D03*
X117836000Y-57868000D03*
X117836000Y-59138000D03*
X117836000Y-60408000D03*
X117836000Y-61678000D03*
X117836000Y-62948000D03*
X117836000Y-64218000D03*
X117836000Y-65488000D03*
X117836000Y-66758000D03*
X117836000Y-68028000D03*
X117836000Y-69298000D03*
D47*
X119601000Y-70548000D03*
X120871000Y-70548000D03*
X122141000Y-70548000D03*
X123411000Y-70548000D03*
X124681000Y-70548000D03*
X125951000Y-70548000D03*
X127221000Y-70548000D03*
X128491000Y-70548000D03*
X129761000Y-70548000D03*
X131031000Y-70548000D03*
X132301000Y-70548000D03*
X133571000Y-70548000D03*
D46*
X135336000Y-69298000D03*
X135336000Y-68028000D03*
X135336000Y-66758000D03*
X135336000Y-65488000D03*
X135336000Y-64218000D03*
X135336000Y-62948000D03*
X135336000Y-61678000D03*
X135336000Y-60408000D03*
X135336000Y-59138000D03*
X135336000Y-57868000D03*
X135336000Y-56598000D03*
X135336000Y-55328000D03*
X135336000Y-54058000D03*
X135336000Y-52788000D03*
D48*
X125086000Y-60508000D03*
G04 #@! TD*
D12*
G04 #@! TO.C,C5*
X114782600Y-54076600D03*
X114782600Y-53436600D03*
G04 #@! TD*
G04 #@! TO.C,C7*
X137007600Y-53700600D03*
X137007600Y-53060600D03*
G04 #@! TD*
D49*
G04 #@! TO.C,L2*
X130489600Y-85191600D03*
X132689600Y-85191600D03*
G04 #@! TD*
D12*
G04 #@! TO.C,R25*
X120751600Y-74223800D03*
X120751600Y-73583800D03*
G04 #@! TD*
D30*
G04 #@! TO.C,MOSFET4*
X143821150Y-80670400D03*
X141928850Y-80670400D03*
X142875000Y-82702400D03*
G04 #@! TD*
D12*
G04 #@! TO.C,R24*
X119461475Y-74223800D03*
X119461475Y-73583800D03*
G04 #@! TD*
D23*
G04 #@! TO.C,VBUS*
X131572000Y-91262200D03*
G04 #@! TD*
M02*
