G04 #@! TF.GenerationSoftware,KiCad,Pcbnew,9.0.0*
G04 #@! TF.CreationDate,2025-04-10T22:34:47-07:00*
G04 #@! TF.ProjectId,HOPE_ESP32_Drone,484f5045-5f45-4535-9033-325f44726f6e,rev?*
G04 #@! TF.SameCoordinates,Original*
G04 #@! TF.FileFunction,Profile,NP*
%FSLAX46Y46*%
G04 Gerber Fmt 4.6, Leading zero omitted, Abs format (unit mm)*
G04 Created by KiCad (PCBNEW 9.0.0) date 2025-04-10 22:34:47*
%MOMM*%
%LPD*%
G01*
G04 APERTURE LIST*
G04 #@! TA.AperFunction,Profile*
%ADD10C,0.100000*%
G04 #@! TD*
G04 #@! TA.AperFunction,Profile*
%ADD11C,0.050000*%
G04 #@! TD*
G04 #@! TA.AperFunction,Profile*
%ADD12C,0.049784*%
G04 #@! TD*
G04 APERTURE END LIST*
D10*
X90548700Y-113616600D02*
G75*
G02*
X81099900Y-113616600I-4724400J0D01*
G01*
X81099900Y-113616600D02*
G75*
G02*
X90548700Y-113616600I4724400J0D01*
G01*
D11*
X104978200Y-58318400D02*
X104978200Y-87452200D01*
D12*
X166371342Y-107181150D02*
G75*
G02*
X160852574Y-112693177I915458J-6435350D01*
G01*
X160236786Y-34848800D02*
X141147800Y-51308000D01*
X92899614Y-110921800D02*
X111988600Y-94462600D01*
X164592000Y-106541186D02*
X148132800Y-87452200D01*
X88519000Y-106541196D02*
G75*
G02*
X86747618Y-107182420I-1486200J1338296D01*
G01*
X160211396Y-110921800D02*
G75*
G02*
X160852620Y-112693182I-1338296J-1486200D01*
G01*
X86747464Y-38588180D02*
G75*
G02*
X88519000Y-39229408I285236J-1979720D01*
G01*
X164617400Y-39229404D02*
G75*
G02*
X166388782Y-38588180I1486200J-1338296D01*
G01*
D10*
X172011200Y-113616500D02*
G75*
G02*
X162562400Y-113616500I-4724400J0D01*
G01*
X162562400Y-113616500D02*
G75*
G02*
X172011200Y-113616500I4724400J0D01*
G01*
D12*
X160876750Y-33069458D02*
G75*
G02*
X166388777Y-38588226I6435350J915458D01*
G01*
D11*
X111988600Y-94462600D02*
X141122400Y-94462600D01*
D12*
X86739658Y-38589450D02*
G75*
G02*
X92258426Y-33077423I-915458J6435350D01*
G01*
D11*
X148132800Y-87452200D02*
X148158200Y-58318400D01*
D12*
X141122400Y-94462600D02*
X160211396Y-110921801D01*
D11*
X141147800Y-51308000D02*
X111988600Y-51308000D01*
D12*
X88519000Y-39229414D02*
X104978200Y-58318400D01*
D10*
X172036500Y-32154000D02*
G75*
G02*
X162587700Y-32154000I-4724400J0D01*
G01*
X162587700Y-32154000D02*
G75*
G02*
X172036500Y-32154000I4724400J0D01*
G01*
D12*
X104978200Y-87452200D02*
X88518999Y-106541196D01*
X148158200Y-58318400D02*
X164617401Y-39229404D01*
D10*
X90548600Y-32154100D02*
G75*
G02*
X81099800Y-32154100I-4724400J0D01*
G01*
X81099800Y-32154100D02*
G75*
G02*
X90548600Y-32154100I4724400J0D01*
G01*
D12*
X92899604Y-34848800D02*
G75*
G02*
X92258380Y-33077418I1338296J1486200D01*
G01*
X111988600Y-51308000D02*
X92899604Y-34848799D01*
X92258380Y-112693336D02*
G75*
G02*
X92899608Y-110921800I1979720J285236D01*
G01*
X160878020Y-33077264D02*
G75*
G02*
X160236792Y-34848800I-1979720J-285236D01*
G01*
X92259650Y-112701142D02*
G75*
G02*
X86747623Y-107182374I-6435350J-915458D01*
G01*
X166363536Y-107182420D02*
G75*
G02*
X164592000Y-106541192I-285236J1979720D01*
G01*
M02*
